/* XPM */
static char *magick[] = {
/* columns rows colors chars-per-pixel */
"48 48 257 2",
"   c Gray0",
".  c #060402",
"X  c #0c0605",
"o  c #0c0e0d",
"O  c #0a0909",
"+  c #0e1110",
"@  c #1b0d0b",
"#  c #130a07",
"$  c #191714",
"%  c #1f2222",
"&  c #240f0c",
"*  c #23100c",
"=  c #2c140f",
"-  c #281815",
";  c #3e1e1a",
":  c #351a15",
">  c #2f221d",
",  c #3c261f",
"<  c #35331d",
"1  c #2a2d2c",
"2  c #252926",
"3  c #2c332c",
"4  c #2e3331",
"5  c #382a24",
"6  c #393426",
"7  c #343732",
"8  c #343934",
"9  c #3d3c35",
"0  c #3f3f3a",
"q  c #3d413b",
"w  c #3e4240",
"e  c #431d17",
"r  c #441e1a",
"t  c #4a1e1c",
"y  c #49231c",
"u  c #53251c",
"i  c #56281c",
"p  c #4a2628",
"a  c #4a3528",
"s  c #443b35",
"d  c #56272c",
"f  c #562b2d",
"g  c #5b2621",
"h  c #58262b",
"j  c #5c2b24",
"k  c #5c2c2c",
"l  c #552d25",
"z  c #5a2d32",
"x  c #5a3b2e",
"c  c #573a33",
"v  c #622e1f",
"b  c #612e25",
"n  c #632c2c",
"m  c #692e2c",
"M  c #672b29",
"N  c #642b32",
"B  c #6a2e31",
"V  c #6d2d34",
"C  c #63332c",
"Z  c #6c3527",
"A  c #6a322e",
"S  c #613227",
"D  c #633231",
"F  c #6d3232",
"G  c #673c30",
"H  c #712e35",
"J  c #732d38",
"K  c #75352b",
"L  c #78372a",
"P  c #743334",
"I  c #763238",
"U  c #733b31",
"Y  c #7b3635",
"T  c #7c3a33",
"R  c #7d3c3a",
"E  c #793439",
"W  c #49442a",
"Q  c #4a443b",
"!  c #45433b",
"~  c #55462e",
"^  c #544738",
"/  c #5d5434",
"(  c #674a39",
")  c #664438",
"_  c #685a3a",
"`  c #774337",
"'  c #794336",
"]  c #77463b",
"[  c #78563f",
"{  c #6d653e",
"}  c #434544",
"|  c #4a544d",
" . c #685c42",
".. c #785343",
"X. c #735c54",
"o. c #6b6643",
"O. c #766946",
"+. c #84362f",
"@. c #843b2d",
"#. c #853c34",
"$. c #863f3d",
"%. c #8c3933",
"&. c #933e33",
"*. c #86443b",
"=. c #8c423b",
"-. c #874739",
";. c #95443b",
":. c #9c463c",
">. c #9b493d",
",. c #984538",
"<. c #a4473c",
"1. c #a64b3d",
"2. c #aa4a3d",
"3. c #ac473b",
"4. c #b04d3e",
"5. c #824441",
"6. c #8b594a",
"7. c #944c43",
"8. c #9d4e42",
"9. c #954740",
"0. c #9c5b4c",
"q. c #985449",
"w. c #9d5852",
"e. c #8a6858",
"r. c #8c7953",
"t. c #9d6a54",
"y. c #a44c42",
"u. c #aa4c42",
"i. c #a55246",
"p. c #ad5245",
"a. c #ab544c",
"s. c #ad5f48",
"d. c #a05e53",
"f. c #ad5c51",
"g. c #b34e42",
"h. c #b84e43",
"j. c #b45243",
"k. c #b95446",
"l. c #b9554a",
"z. c #bb5b4c",
"x. c #b3554a",
"c. c #b65651",
"v. c #b45c53",
"b. c #bd5c52",
"n. c #ab614b",
"m. c #a76456",
"M. c #a1725e",
"N. c #b0614b",
"B. c #b6665b",
"V. c #ba6659",
"C. c #b96958",
"Z. c #a67561",
"A. c #ba6c61",
"S. c #b8786b",
"D. c #b77971",
"F. c #c4594c",
"G. c #c35d51",
"H. c #c3604d",
"J. c #c36455",
"K. c #cc6a5a",
"L. c #c66857",
"P. c #cc755e",
"I. c #c5715d",
"U. c #d26d5c",
"Y. c #d86b57",
"T. c #d4745e",
"R. c #d9735d",
"E. c #c86c62",
"W. c #c37165",
"Q. c #cb7364",
"!. c #cd7769",
"~. c #c97868",
"^. c #c47e74",
"/. c #d57462",
"(. c #d57a64",
"). c #d47b6a",
"_. c #db7c66",
"`. c #da7e6d",
"'. c #dc7c6c",
"]. c #da7366",
"[. c #dd7e70",
"{. c #d57e70",
"}. c #e07c6a",
"|. c #99895a",
" X c #8b8764",
".X c #968a60",
"XX c #a3956b",
"oX c #ae9b67",
"OX c #bc8266",
"+X c #be8078",
"@X c #b0977d",
"#X c #b3a56b",
"$X c #baaf76",
"%X c #b6a572",
"&X c #d5826c",
"*X c #dd816e",
"=X c #db826d",
"-X c #d38272",
";X c #dd8472",
":X c #dd8a75",
">X c #db8979",
",X c #d68b7a",
"<X c #d19171",
"1X c #c68577",
"2X c #c2b17a",
"3X c #d6a67d",
"4X c #c2ab77",
"5X c #e2826e",
"6X c #e18272",
"7X c #e38574",
"8X c #e38a76",
"9X c #e38b79",
"0X c #e19079",
"qX c #bab189",
"wX c #c99086",
"eX c #cb9c94",
"rX c #d68c81",
"tX c #d69887",
"yX c #da9c92",
"uX c #cfa49f",
"iX c #c1b58a",
"pX c #d4a59c",
"aX c #dfbd97",
"sX c #d4aaa2",
"dX c #dbb5ae",
"fX c #d7b0a7",
"gX c #d7bbb6",
"hX c #c9aca9",
"jX c #e19b85",
"kX c #e29d88",
"lX c #e4a28a",
"zX c #eaa28b",
"xX c #eaad92",
"cX c #ebb39a",
"vX c #e1b4af",
"bX c #e1b6b2",
"nX c #cbc396",
"mX c #d7ca98",
"MX c #cbc0bd",
"NX c #d9caa6",
"BX c #d3c6bf",
"VX c #d7d4ab",
"CX c #e2d8a6",
"ZX c #e2d8b1",
"AX c #f7dbb6",
"SX c #e8cca5",
"DX c #ede0af",
"FX c #ede9b2",
"GX c #d6cac4",
"HX c #ded4cd",
"JX c #e6d1cd",
"KX c #e7d6d3",
"LX c #fdecc6",
"PX c #fdf2c6",
"IX c #fbf4cb",
"UX c #f0e1e3",
"YX c None",
/* pixels */
"YXYXYXYXYXYXYXYXYXYXYXYXYXYXYXYXYXYXYXYXYXYXYXYXYXYXYXYXYXYXYXYXYXYXYXYXYXYXYXYXYXYXYXYXYXYXYXYX",
"YXYXYXYXYXYXYXYXYXYXYXYXYXYXYXYXYXYXYXYXYXYXYXYXYXYXYXYXYXYXYXYXYXYXYXYXYXYXYXYXYXYXYXYXYXYXYXYX",
"YXYXYXYXYXYXYXYXYXYXYXYXYXYXYXYXYXYXYXYXYXYXYXYXYXYXYXYXYXYXYXYXYXYXYXYXYXYXYXYXYXYXYXYXYXYXYXYX",
"YXYXYXYXYXYXYXYXYXYXYXYXYXYXYXYXYXYXYXYXYXYXYXYXYXYXYXYXYXYXYXYXYXYXYXYXYXYXYXYXYXYXYXYXYXYXYXYX",
"YXYXYXYXYXYXYXYXYXYXYXYXYXYXYXYXYXYXYXYXYXYXYXYXYXYXYXYXYXYXYXYXYXYXYXYXYXYXYXYXYXYXYXYXYXYXYXYX",
"YXYXYXYXYXYXYXYXYXYXYXYXYXYXYXYXYXYXYXYXYXYXYXYXYXYXYXYXYXYXYXYXYXYXYXYXYXYXYXYXYXYXYXYXYXYXYXYX",
"YXYXYXYXYXYXYXYXYXYXYXYXYXYXYXYXYXYXYX' N.n.C.n.q.7.YXYXYXYXYXYXYXYXYXYXYXYXYXYXYXYXYXYXYXYXYXYX",
"YXYXYXYXYXYXYXYXYXYXYXYXYXYXYX5 c q.K.T.).&X&X&X).Q.K.V.b.l.T y YXYXYXYXYXYXYXYXYXYXYXYXYXYXYXYX",
"YXYXYXYXYXYXYXYXYXYXYXYXYXp *.V.Q.I.3XlX8X6X6X7X7X;X5X_.U.L.z.y.T YXYXYXYXYXYXYXYXYXYXYXYXYXYXYX",
"YXYXYXYXYXYXYXYXYXYXYXYXYXf.V.(.0./ #XCXPX:X`.`.).;X:X=X=X`./.J.x.<.,.YXYXYXYXYXYXYXYXYXYXYXYXYX",
"YXYXYXYXYXYXYXYXYXYXYXX.f.b./.=X( W oXmXIXcX`.m.r.2XSXxX;X;X;X_.K.k.z.i.Z YXYXYXYXYXYXYXYXYXYXYX",
"YXYXYXYXYXYXYXYXYXYX..D.J./.*X;X..< r.iXVXtX~.x { 4XDXLXzX;XOX3XkXG.F.J.8.U YXYXYXYXYXYXYXYXYXYX",
"YXYXYXYXYXYXYXYXYXYXS.^./.:X;X7X~.( ~ _ e.Q.Q.a / XXNXAXjX] { $XFXAXK.l.B.q.YXYXYXYXYXYXYXYXYXYX",
"YXYXYXYXYXYXYXYXYXm.wX^.(.=X`.;X8X7XB.C.).*X5X] 6 o. X@XA.a _ %XZXLX0Xj.c.w.q.U YXYXYXYXYXYXYXYX",
"YXYXYXYXYXYXYXYX' D.eX!._.=X*X;X;X;X`.`.`.=X*X).m.] 6.!.].a W |.nXNX<XF.p.m.w.-.- YXYXYXYXYXYXYX",
"YXYXYXYXYXYXYXYX7.pXtXU.`.=X7X:X[.'.`.=X=X`.=X*X7X8X7X6X5XC.~ ~  .M.!.(.p.q.q.9.r YXYXYXYXYXYXYX",
"YXYXYXYXYXYXYXy m.fX,XT.;X&X<X,X;X`.;X[.`.`.`.`.;X;X*X`.'.7X;XA.W.*X;X&Xn.>.;.$.j YXYXYXYXYXYXYX",
"YXYXYXYXYXYXYXT D.sX-XR.I.[ |.mXAXkX;X;X7X;X'.`.;X;X;X`.`.6X8X8X6X=X=X(.N.,.,.R j YXYXYXYXYXYXYX",
"YXYXYXYXYXYXYXv.pXgX,XR.-.q |.mXLXAX;X!.t.4XaXlX`.;X;X;X*X6X7X7X`._.(.T.4.&.L c y YXYXYXYXYXYXYX",
"YXYXYXYXYXYX@.V.sXBX<XY.>.< O.qXZXNX;X6.~ #XCXPXjX'.`.'.'.'.6X[.*X`.(.P.1.+.g s ; YXYXYXYXYXYXYX",
"YXYXYXYXYXYXL A.sXGXpXY.I.a W o.r.D.{.) W oXmXIXcX'.;XOX3XkX6X}.*X=X).L.,.K t 4 = YXYXYXYXYXYXYX",
"YXYXYXYXYXYXm W.uXBXdX).R.*XC.w.!.7X8X6.< O.XXqX1X`.[ O.$XFXAX7X*X(.L.x.%.M c 8 , YXYXYXYXYXYXYX",
"YXYXYXYXYXYX=.~.uXgXgXvXU.R.*X6X9X9X9X-X6.( ..Z./.).a _ %XCXLXzX7XP.z.4.+.h c 8 6 YXYXYXYXYXYXYX",
"YXYXYXYXYXYX8.A.eXHXGXKXyXY.T._.=X;X8X8X8X-X{.;X`.[.a W .XnXNXtX=XJ.j.3.P a ^ 7 3 YXYXYXYXYXYXYX",
"YXYXYXYXYXYXp.V.1XhXgXJXUXbX>X(._._.`.;X:X:X:X:X:X8XB.~ ~  .Z.).L.u.u.#.p 9 s 8 2 YXYXYXYXYXYXYX",
"YXYXYXYXYXYXp.i.0.m.1X+XeXdXbXsXtX-XU./.`.=X;X>X:X:X8X*XC.I.(.K.j.p.a.T 6 ! q 9 2 YXYXYXYXYXYXYX",
"YXYXYXYXYXYXu.,.;.1.u.<.a.v.S.tXyXyXE.G.J.U./._._._._./.K.G.l.k.l.c.a.D 9 ! w 9 $ YXYXYXYXYXYXYX",
"YXYXYXYXYXYX,.y.y.8.7.9.=.=.=.,.>.i.a.p.k.k.l.l.G.G.z.k.k.j.F.F.b.v.7.a 0 ! } 7 YXYXYXYXYXYXYXYX",
"YXYXYXYXYXYX@.>.8.$.R F B P E Y Y P *.;.i.p.y.>.1.g.g.u.4.j.z.c.c.c.] s Q } } 1 YXYXYXYXYXYXYXYX",
"YXYXYXYXYXYXYX@.*.R F P J H E E H V H P P #.=.9.:.<.3.h.2.y.a.a.c.p.G 0 Q } } YXYXYXYXYXYXYXYXYX",
"YXYXYXYXYXYXYX@.U Y I I J V B B H J J J P Y P H Y =.>.>.<.<.u.p.k.9.^ q q } 0 YXYXYXYXYXYXYXYXYX",
"YXYXYXYXYXYXYXZ S F Y I I J H n N J V H P A A Y P A P 9.y.:.g.1.u.' Q q 8 w YXYXYXYXYXYXYXYXYXYX",
"YXYXYXYXYXYXYXYXZ A P B H V H B n V V k N B m m F F n F 5.7.:.u.u.] Q 7 8 w YXYXYXYXYXYXYXYXYXYX",
"YXYXYXYXYXYXYXYXYXL U A n n B B F V V N h n B B B B N N N 5.*.<.u.G 8 1 | 1 YXYXYXYXYXYXYXYXYXYX",
"YXYXYXYXYXYXYXYXYXYXK j n n m B F B B B B N k N N V V H N P -.,.:.x 3 8 w YXYXYXYXYXYXYXYXYXYXYX",
"YXYXYXYXYXYXYXYXYXYXYXZ n A P m F F m n B N h d h d k I H N T -.#.x 6 4 YXYXYXYXYXYXYXYXYXYXYXYX",
"YXYXYXYXYXYXYXYXYXYXYXYXYXZ K m n A F F N k d p p h N P N k U ' #.b 6 YXYXYXYXYXYXYXYXYXYXYXYXYX",
"YXYXYXYXYXYXYXYXYXYXYXYXYXYXg M n C C C k D D z f f N D f k ` ` K y - YXYXYXYXYXYXYXYXYXYXYXYXYX",
"YXYXYXYXYXYXYXYXYXYXYXYXYXYXYXYXYXj g g M n n k f f D D C G -.Z * YXYXYXYXYXYXYXYXYXYXYXYXYXYXYX",
"YXYXYXYXYXYXYXYXYXYXYXYXYXYXYXYXYXYXYX: : ; e r u g j b l j i # YXYXYXYXYXYXYXYXYXYXYXYXYXYXYXYX",
"YXYXYXYXYXYXYXYXYXYXYXYXYXYXYXYXYXYXYXYXYXYX                  YXYXYXYXYXYXYXYXYXYXYXYXYXYXYXYXYX",
"YXYXYXYXYXYXYXYXYXYXYXYXYXYXYXYXYXYXYXYXYXYXYXYXYXYXYXYXYXYXYXYXYXYXYXYXYXYXYXYXYXYXYXYXYXYXYXYX",
"YXYXYXYXYXYXYXYXYXYXYXYXYXYXYXYXYXYXYXYXYXYXYXYXYXYXYXYXYXYXYXYXYXYXYXYXYXYXYXYXYXYXYXYXYXYXYXYX",
"YXYXYXYXYXYXYXYXYXYXYXYXYXYXYXYXYXYXYXYXYXYXYXYXYXYXYXYXYXYXYXYXYXYXYXYXYXYXYXYXYXYXYXYXYXYXYXYX",
"YXYXYXYXYXYXYXYXYXYXYXYXYXYXYXYXYXYXYXYXYXYXYXYXYXYXYXYXYXYXYXYXYXYXYXYXYXYXYXYXYXYXYXYXYXYXYXYX",
"YXYXYXYXYXYXYXYXYXYXYXYXYXYXYXYXYXYXYXYXYXYXYXYXYXYXYXYXYXYXYXYXYXYXYXYXYXYXYXYXYXYXYXYXYXYXYXYX",
"YXYXYXYXYXYXYXYXYXYXYXYXYXYXYXYXYXYXYXYXYXYXYXYXYXYXYXYXYXYXYXYXYXYXYXYXYXYXYXYXYXYXYXYXYXYXYXYX",
"YXYXYXYXYXYXYXYXYXYXYXYXYXYXYXYXYXYXYXYXYXYXYXYXYXYXYXYXYXYXYXYXYXYXYXYXYXYXYXYXYXYXYXYXYXYXYXYX"
};
