/* XPM */
static char *magick[] = {
/* columns rows colors chars-per-pixel */
"48 48 255 2",
"   c Gray0",
".  c #060402",
"X  c #070c0b",
"o  c #0e0706",
"O  c #0b0504",
"+  c #0c0907",
"@  c #0c0e0d",
"#  c #0b0708",
"$  c #0e1110",
"%  c #140a07",
"&  c #1b0d0b",
"*  c #120a08",
"=  c #191714",
"-  c #1f2222",
";  c #240f0c",
":  c #23100c",
">  c #2c140f",
",  c #281815",
"<  c #3f1b17",
"1  c #3e1e1a",
"2  c #331a15",
"3  c #2f221d",
"4  c #252714",
"5  c #3c261f",
"6  c #32301c",
"7  c #2a2d2c",
"8  c #252926",
"9  c #2c332c",
"0  c #2e3331",
"q  c #372f2a",
"w  c #3f2621",
"e  c #312922",
"r  c #3d302b",
"t  c #35312a",
"y  c #343732",
"u  c #343934",
"i  c #3d3c35",
"p  c #3f3f3a",
"a  c #3d413b",
"s  c #3e4240",
"d  c #431d17",
"f  c #441e1a",
"g  c #4a1e1c",
"h  c #46211d",
"j  c #4b241c",
"k  c #53251c",
"l  c #56281c",
"z  c #4a2628",
"x  c #49332d",
"c  c #443b35",
"v  c #56272c",
"b  c #552d25",
"n  c #562b2d",
"m  c #5b2621",
"M  c #58262b",
"N  c #5c2b24",
"B  c #5c2c2c",
"V  c #5a2d32",
"C  c #5b372e",
"Z  c #573a33",
"A  c #622e1f",
"S  c #612e25",
"D  c #622a2f",
"F  c #642c2b",
"G  c #6a2e26",
"H  c #692e2c",
"J  c #63262f",
"K  c #642b32",
"L  c #6a2e31",
"P  c #6e2e35",
"I  c #6c2c33",
"U  c #63332c",
"Y  c #6c3527",
"T  c #6a322e",
"R  c #613227",
"E  c #633231",
"W  c #6d3232",
"Q  c #673c30",
"!  c #712e35",
"~  c #732d38",
"^  c #75352b",
"/  c #76392b",
"(  c #7e3c2e",
")  c #763429",
"_  c #743334",
"`  c #763238",
"'  c #733b31",
"]  c #7b3635",
"[  c #7c3a33",
"{  c #7d3c3a",
"}  c #793439",
"|  c #4a443b",
" . c #45433b",
".. c #54432f",
"X. c #554537",
"o. c #5f5738",
"O. c #664239",
"+. c #774337",
"@. c #794336",
"#. c #77443c",
"$. c #434544",
"%. c #4a544d",
"&. c #7d5448",
"*. c #735c54",
"=. c #7a674c",
"-. c #84362f",
";. c #843b2d",
":. c #853c34",
">. c #863f3d",
",. c #8c3933",
"<. c #933e33",
"1. c #86443b",
"2. c #8c423b",
"3. c #874537",
"4. c #974536",
"5. c #95443b",
"6. c #9c463c",
"7. c #9b493d",
"8. c #984438",
"9. c #a4473c",
"0. c #a64b3d",
"q. c #aa4a3d",
"w. c #ac473b",
"e. c #b04d3e",
"r. c #824441",
"t. c #944c43",
"y. c #984740",
"u. c #9d4e42",
"i. c #924740",
"p. c #9b534a",
"a. c #985548",
"s. c #9d5852",
"d. c #81754c",
"f. c #866258",
"g. c #a44c42",
"h. c #aa4c42",
"j. c #a55246",
"k. c #ac5245",
"l. c #ab544c",
"z. c #ac5f48",
"x. c #ad5c51",
"c. c #a15e55",
"v. c #b34e42",
"b. c #b84e43",
"n. c #b45244",
"m. c #b55847",
"M. c #b95549",
"N. c #bb5a4d",
"B. c #b65448",
"V. c #b65651",
"C. c #b45c53",
"Z. c #bd5c52",
"A. c #ab614b",
"S. c #a76356",
"D. c #b0614b",
"F. c #b5695f",
"G. c #bc6254",
"H. c #bc655a",
"J. c #b66657",
"K. c #ae7664",
"L. c #ba6961",
"P. c #b8786d",
"I. c #b77971",
"U. c #c1584b",
"Y. c #c35d51",
"T. c #c2604c",
"R. c #c56354",
"E. c #c56a55",
"W. c #ca6253",
"Q. c #cf6856",
"!. c #cb6b5a",
"~. c #c16759",
"^. c #cc755e",
"/. c #d36753",
"(. c #d26e5b",
"). c #d26957",
"_. c #d5755e",
"`. c #d8715d",
"'. c #c86c62",
"]. c #cd7669",
"[. c #c77366",
"{. c #c47e74",
"}. c #d47462",
"|. c #d57a64",
" X c #d47c6a",
".X c #db7b66",
"XX c #da7e6e",
"oX c #dc7e6a",
"OX c #dd7e6d",
"+X c #da7b6a",
"@X c #dd7f71",
"#X c #da7e70",
"$X c #e17e6b",
"%X c #a09268",
"&X c #be8078",
"*X c #bbac79",
"=X c #bfb87f",
"-X c #c0876a",
";X c #c68477",
":X c #d6816d",
">X c #da816e",
",X c #dd816e",
"<X c #dd846d",
"1X c #d58374",
"2X c #da8171",
"3X c #dd8272",
"4X c #dd8375",
"5X c #dd8572",
"6X c #dd8575",
"7X c #da8573",
"8X c #dd8779",
"9X c #dd8976",
"0X c #dc8a75",
"qX c #dd8b7a",
"wX c #d48a7c",
"eX c #e1836e",
"rX c #e18271",
"tX c #e18676",
"yX c #e28473",
"uX c #e48779",
"iX c #e08a76",
"pX c #e28b75",
"aX c #e08b7a",
"sX c #c99086",
"dX c #cb9c94",
"fX c #df8f80",
"gX c #d68c81",
"hX c #d79387",
"jX c #d1958a",
"kX c #da9c92",
"lX c #cfa49f",
"zX c #d5a880",
"xX c #d4a59c",
"cX c #c9aca9",
"vX c #d0aaa3",
"bX c #dbaaa2",
"nX c #d7b0a7",
"mX c #dbb5ae",
"MX c #d4bfa1",
"NX c #d7bbb6",
"BX c #e1b4af",
"VX c #e1b6b2",
"CX c #cbc0bd",
"ZX c #d6cfa7",
"AX c #d3c6bf",
"SX c #f0c3a3",
"DX c #f7e1bd",
"FX c #d6cac4",
"GX c #ded4cd",
"HX c #e6d1cd",
"JX c #e7d6d3",
"KX c #f4e9c0",
"LX c #f9f3c0",
"PX c #f0e1e3",
"IX c None",
/* pixels */
"IXIXIXIXIXIXIXIXIXIXIXIXIXIXIXIXIXIXIXIXIXIXIXIXIXIXIXIXIXIXIXIXIXIXIXIXIXIXIXIXIXIXIXIXIXIXIXIX",
"IXIXIXIXIXIXIXIXIXIXIXIXIXIXIXIXIXIXIXIXIXIXIXIXIXIXIXIXIXIXIXIXIXIXIXIXIXIXIXIXIXIXIXIXIXIXIXIX",
"IXIXIXIXIXIXIXIXIXIXIXIXIXIXIXIXIXIXIXIXIXIXIXIXIXIXIXIXIXIXIXIXIXIXIXIXIXIXIXIXIXIXIXIXIXIXIXIX",
"IXIXIXIXIXIXIXIXIXIXIXIXIXIXIXIXIXIXIXIXIXIXIXIXIXIXIXIXIXIXIXIXIXIXIXIXIXIXIXIXIXIXIXIXIXIXIXIX",
"IXIXIXIXIXIXIXIXIXIXIXIXIXIXIXIXIXIXIXIXIXIXIXIXIXIXIXIXIXIXIXIXIXIXIXIXIXIXIXIXIXIXIXIXIXIXIXIX",
"IXIXIXIXIXIXIXIXIXIXIXIXIXIXIXIXIXIXIXIXIXIXIXIXIXIXIXIXIXIXIXIXIXIXIXIXIXIXIXIXIXIXIXIXIXIXIXIX",
"IXIXIXIXIXIXIXIXIXIXIXIXIXIXIXIXIXIXIX@.D.A.J.S.a.t.IXIXIXIXIXIXIXIXIXIXIXIXIXIXIXIXIXIXIXIXIXIX",
"IXIXIXIXIXIXIXIXIXIXIXIXIXIXIXw Z a.!.|. X:X:X:X X].!.G.Z.M.[ j IXIXIXIXIXIXIXIXIXIXIXIXIXIXIXIX",
"IXIXIXIXIXIXIXIXIXIXIXIXIXz 1.G.~._.eXpXiXtXrXyX5X5XeX.X_.R.N.g.( IXIXIXIXIXIXIXIXIXIXIXIXIXIXIX",
"IXIXIXIXIXIXIXIXIXIXIXIXIXx.G.}.OXyX5X3X3X3XOX+X+XoX3X5X<XoX}.R.B.9.4.IXIXIXIXIXIXIXIXIXIXIXIXIX",
"IXIXIXIXIXIXIXIXIXIXIX*.x.Z.}.yX5X5X3X3X3X,XXX>X3X6XqXqX9X5X5X X!.M.N.j.Y IXIXIXIXIXIXIXIXIXIXIX",
"IXIXIXIXIXIXIXIXIXIX&.I.~.}.,X2X5X6X5X5X3XXX>X2X7X7X9XiX0X5X5X0X>XQ.Y.~.p./ IXIXIXIXIXIXIXIXIXIX",
"IXIXIXIXIXIXIXIXIXIXP.{.}.0X5X3X3X5X2X2XXXXXXXXXXX2X2X3XrX5X3X>X0X,XW.N.F.p.IXIXIXIXIXIXIXIXIXIX",
"IXIXIXIXIXIXIXIXIXS.sX{.|.<XoX3XyX5XXXXXXX2XXX+X+XXX2XOXOXOX,X,X5X5X`.n.x.s.a.' IXIXIXIXIXIXIXIX",
"IXIXIXIXIXIXIXIX@.I.dX]..X>X,X6X6X3XXXXXyX X&XzXfX+X3XoX+X+XOXOXOX2XoXT.h.S.s.1., IXIXIXIXIXIXIX",
"IXIXIXIXIXIXIXIXt.xXjX(.oX<X9X9X#XXXXX3X X..d.=XLXSX3X,X+XOXrX3X2X>X0X|.k.a.p.y.f IXIXIXIXIXIXIX",
"IXIXIXIXIXIXIXj c.nXgX(.:X5XiX6XXX3X4X3XF.6 d.*XKXDXqXoX+X,XtXtX6X:X>X:XA.7.5.>.N IXIXIXIXIXIXIX",
"IXIXIXIXIXIXIX/ I.vX1X(. X5X9X9X9XqXqX3X1X4 o.%XZXMX7XXXOXrXtXyX3XXX>X|.D.8.8.+.N IXIXIXIXIXIXIX",
"IXIXIXIXIXIXIXC.xXNX8X(..X5X5X9XqX9X6X3XuXa...X.=.K.5X5X@XrXtXyX@X+X|._.e.<.) Z j IXIXIXIXIXIXIX",
"IXIXIXIXIXIX;.H.bXAXwX/.|.<XyXiX6X6X6X3X4XyX].F.].tXqX6X6XtXrXrXOX+X+X^.0.-.m c 1 IXIXIXIXIXIXIX",
"IXIXIXIXIXIX) L.vXFXxX/.|.<X5X9X9X6X6X6X4X4X@X@X8XqXqX6X6XtXyX$X,X>X XE.8.^ g q > IXIXIXIXIXIXIX",
"IXIXIXIXIXIXG [.vXAXmX X(. X>X5X6X6X3X6X8X4X@X3X4X8XqX4X3XtXtX$X<X|.E.m.,.F C y 5 IXIXIXIXIXIXIX",
"IXIXIXIXIXIX2.[.vXNXNXBX)._..X,X5XiXiX9X6X6X4X6X4X@X3X6X4XrXyXyXpX^.N.e.-.M X.u t IXIXIXIXIXIXIX",
"IXIXIXIXIXIXu.L.dXGXFXJXkX)._..X,X5XiXiX9XqX6X4X3X@X,X3X6XeXyXpX<XR.n.q.^ x | y 9 IXIXIXIXIXIXIX",
"IXIXIXIXIXIXk.H.;XcXNXHXPXVX8X.X.X.XoX5X5X5X9X0X0X6X,X.X,X3X<X.XR.h.h.:.z i c u 8 IXIXIXIXIXIXIX",
"IXIXIXIXIXIXk.j.s.S.;X&XdXmXNXbXhX1X(.}.oXXX5X0X9X5X<X,X<XeX}.R.B.k.l.[ r  .a i 8 IXIXIXIXIXIXIX",
"IXIXIXIXIXIXh.6.5.q.h.9.k.C.P.jXkXkX'.Y.W.!.}.+X+X+X+X_.E.U.M.B.M.V.l.U i  .a i = IXIXIXIXIXIXIX",
"IXIXIXIXIXIX4.0.g.u.t.i.2.2.2.4.7.j.l.k.M.M.M.M.Y.Y.N.n.M.n.U.U.Z.C.t.x a  .$.y IXIXIXIXIXIXIXIX",
"IXIXIXIXIXIX;.7.u.r.{ W I _ { ] ] _ 3.5.j.k.g.7.0.v.v.h.e.n.N.V.V.V.#.c | $.$.7 IXIXIXIXIXIXIXIX",
"IXIXIXIXIXIXIX;.1.{ W _ ~ ! ` } _ I ! _ _ :.2.i.6.9.w.b.q.g.l.l.V.h.O.i | $.$.IXIXIXIXIXIXIXIXIX",
"IXIXIXIXIXIXIX;.' _ ` ` ~ P I I ! ~ ~ ~ _ ] _ ! ] 2.7.7.9.9.h.k.B.y.X.a a $.p IXIXIXIXIXIXIXIXIX",
"IXIXIXIXIXIXIXY R W _ _ ` ~ ! D K ~ I ! _ T T _ _ T _ y.g.6.v.q.v.#.| a u s IXIXIXIXIXIXIXIXIXIX",
"IXIXIXIXIXIXIXIXY T _ L ! P ! L D P P B J L T H W W D W 1.t.6.h.h.#.| y u a IXIXIXIXIXIXIXIXIXIX",
"IXIXIXIXIXIXIXIXIX/ ' T F F L H W P P K M D L L L L K J K r.1.9.h.Q u 9 %.7 IXIXIXIXIXIXIXIXIXIX",
"IXIXIXIXIXIXIXIXIXIX^ N F F L L W L L L L K B K K P P ! K _ 1.5.6.Z 9 u s IXIXIXIXIXIXIXIXIXIXIX",
"IXIXIXIXIXIXIXIXIXIXIXG F T _ H W W H F L K v v M v B ` P I @.3.:.C t 0 IXIXIXIXIXIXIXIXIXIXIXIX",
"IXIXIXIXIXIXIXIXIXIXIXIXIXG ^ H F T W W K B v z z M K _ K B ' @.:.S r IXIXIXIXIXIXIXIXIXIXIXIXIX",
"IXIXIXIXIXIXIXIXIXIXIXIXIXIXm H F U U U B E E V n n K E n B +.+.^ h , IXIXIXIXIXIXIXIXIXIXIXIXIX",
"IXIXIXIXIXIXIXIXIXIXIXIXIXIXIXIXIXN m N F F F B n n E E U Q 3.Y : IXIXIXIXIXIXIXIXIXIXIXIXIXIXIX",
"IXIXIXIXIXIXIXIXIXIXIXIXIXIXIXIXIXIXIX2 2 < d d k m N S b N l % IXIXIXIXIXIXIXIXIXIXIXIXIXIXIXIX",
"IXIXIXIXIXIXIXIXIXIXIXIXIXIXIXIXIXIXIXIXIXIX                  IXIXIXIXIXIXIXIXIXIXIXIXIXIXIXIXIX",
"IXIXIXIXIXIXIXIXIXIXIXIXIXIXIXIXIXIXIXIXIXIXIXIXIXIXIXIXIXIXIXIXIXIXIXIXIXIXIXIXIXIXIXIXIXIXIXIX",
"IXIXIXIXIXIXIXIXIXIXIXIXIXIXIXIXIXIXIXIXIXIXIXIXIXIXIXIXIXIXIXIXIXIXIXIXIXIXIXIXIXIXIXIXIXIXIXIX",
"IXIXIXIXIXIXIXIXIXIXIXIXIXIXIXIXIXIXIXIXIXIXIXIXIXIXIXIXIXIXIXIXIXIXIXIXIXIXIXIXIXIXIXIXIXIXIXIX",
"IXIXIXIXIXIXIXIXIXIXIXIXIXIXIXIXIXIXIXIXIXIXIXIXIXIXIXIXIXIXIXIXIXIXIXIXIXIXIXIXIXIXIXIXIXIXIXIX",
"IXIXIXIXIXIXIXIXIXIXIXIXIXIXIXIXIXIXIXIXIXIXIXIXIXIXIXIXIXIXIXIXIXIXIXIXIXIXIXIXIXIXIXIXIXIXIXIX",
"IXIXIXIXIXIXIXIXIXIXIXIXIXIXIXIXIXIXIXIXIXIXIXIXIXIXIXIXIXIXIXIXIXIXIXIXIXIXIXIXIXIXIXIXIXIXIXIX",
"IXIXIXIXIXIXIXIXIXIXIXIXIXIXIXIXIXIXIXIXIXIXIXIXIXIXIXIXIXIXIXIXIXIXIXIXIXIXIXIXIXIXIXIXIXIXIXIX"
};
