/* XPM */
static char *magick[] = {
/* columns rows colors chars-per-pixel */
"48 48 254 2",
"   c Gray0",
".  c #060402",
"X  c #0c0605",
"o  c #0c0907",
"O  c #0c0e0d",
"+  c #080a0a",
"@  c #0e1110",
"#  c #1b0d0b",
"$  c #130a07",
"%  c #191714",
"&  c #1f2222",
"*  c #240f0c",
"=  c #23100c",
"-  c #2c140f",
";  c #281815",
":  c #3e1e1a",
">  c #351a15",
",  c #2f221d",
"<  c #362a1d",
"1  c #2a2d2c",
"2  c #252926",
"3  c #2c332c",
"4  c #2e3331",
"5  c #382a24",
"6  c #3e3a23",
"7  c #393227",
"8  c #343732",
"9  c #343934",
"0  c #3d3c35",
"q  c #3f3f3a",
"w  c #3d413b",
"e  c #3e4240",
"r  c #431d17",
"t  c #441e1a",
"y  c #4a1e1c",
"u  c #49231c",
"i  c #53251c",
"p  c #56281c",
"a  c #4a2628",
"s  c #47332a",
"d  c #443b35",
"f  c #56272c",
"g  c #562b2d",
"h  c #5b2621",
"j  c #58262b",
"k  c #5c2b24",
"l  c #5c2c2c",
"z  c #552d25",
"x  c #5a2d32",
"c  c #5b372e",
"v  c #573a33",
"b  c #622e1f",
"n  c #612e25",
"m  c #632c2c",
"M  c #692e2c",
"N  c #672b29",
"B  c #642b32",
"V  c #6a2e31",
"C  c #6d2d34",
"Z  c #63332c",
"A  c #6c3527",
"S  c #6a322e",
"D  c #613227",
"F  c #633231",
"G  c #6d3232",
"H  c #673c30",
"J  c #712e35",
"K  c #732d38",
"L  c #75352b",
"P  c #7e3c2e",
"I  c #763529",
"U  c #743334",
"Y  c #763238",
"T  c #733b31",
"R  c #7b3635",
"E  c #7c3a33",
"W  c #7d3c3a",
"Q  c #793439",
"!  c #474229",
"~  c #4a443b",
"^  c #45433b",
"/  c #57462e",
"(  c #544638",
")  c #555032",
"_  c #654436",
"`  c #684739",
"'  c #645639",
"]  c #774337",
"[  c #754c3c",
"{  c #794336",
"}  c #79463c",
"|  c #6e653e",
" . c #434544",
".. c #4a544d",
"X. c #7a5744",
"o. c #735c54",
"O. c #6e6846",
"+. c #7a714c",
"@. c #84362f",
"#. c #843b2d",
"$. c #853c34",
"%. c #863f3d",
"&. c #8c3933",
"*. c #933e33",
"=. c #86443b",
"-. c #8c423b",
";. c #874537",
":. c #95443b",
">. c #9c463c",
",. c #9b493d",
"<. c #984538",
"1. c #a4473c",
"2. c #a64b3d",
"3. c #aa4a3d",
"4. c #ac473b",
"5. c #b04d3e",
"6. c #834a43",
"7. c #944c43",
"8. c #9d4e42",
"9. c #954740",
"0. c #9b534a",
"q. c #985648",
"w. c #9d5852",
"e. c #866656",
"r. c #8c7657",
"t. c #937f53",
"y. c #a44c42",
"u. c #aa4c42",
"i. c #a55246",
"p. c #ac5245",
"a. c #ab544c",
"s. c #a95c4a",
"d. c #ac5c52",
"f. c #a25e53",
"g. c #b34e42",
"h. c #b84e43",
"j. c #b45244",
"k. c #b95549",
"l. c #bb5a4d",
"z. c #b65448",
"x. c #b65651",
"c. c #b45c53",
"v. c #bd5c52",
"b. c #ab614b",
"n. c #ac665b",
"m. c #af6f5e",
"M. c #a66154",
"N. c #a27c5c",
"B. c #b0614b",
"V. c #bc6254",
"C. c #b96759",
"Z. c #bb6c61",
"A. c #bc7061",
"S. c #b7786b",
"D. c #b77971",
"F. c #c1584b",
"G. c #c35d51",
"H. c #c2604c",
"J. c #c56354",
"K. c #c56a55",
"L. c #cb6354",
"P. c #cb6b5a",
"I. c #c2675a",
"U. c #cc755e",
"Y. c #d26d5c",
"T. c #d36854",
"R. c #d5765e",
"E. c #da715d",
"W. c #c86c62",
"Q. c #c67468",
"!. c #ca7464",
"~. c #c57767",
"^. c #c47e74",
"/. c #d37462",
"(. c #d57a64",
"). c #d47b6a",
"_. c #db7760",
"`. c #da7b66",
"'. c #da7e6e",
"]. c #db7c6b",
"[. c #d67f72",
"{. c #db7e70",
"}. c #e17e6c",
"|. c #e07a67",
" X c #958658",
".X c #8d8567",
"XX c #af9d68",
"oX c #be8078",
"OX c #afa66c",
"+X c #b3a36d",
"@X c #bbad79",
"#X c #a7a279",
"$X c #cb816e",
"%X c #c78375",
"&X c #c69670",
"*X c #d6826d",
"=X c #db826e",
"-X c #d58172",
";X c #dc8171",
":X c #de8572",
">X c #de8676",
",X c #db8373",
"<X c #db877a",
"1X c #dd8975",
"2X c #dd8c7a",
"3X c #d48a7c",
"4X c #d9947a",
"5X c #cab07f",
"6X c #d0a47c",
"7X c #e1836e",
"8X c #e28473",
"9X c #e28a76",
"0X c #e38c7a",
"qX c #bbaa8c",
"wX c #c99086",
"eX c #cb9c94",
"rX c #d68c81",
"tX c #df9382",
"yX c #d39789",
"uX c #da9c92",
"iX c #cfa49f",
"pX c #c5b98d",
"aX c #dea88b",
"sX c #d4a59c",
"dX c #d1b195",
"fX c #d4aaa2",
"gX c #d7b0a7",
"hX c #dbb5ae",
"jX c #d7bbb6",
"kX c #c9aca9",
"lX c #e4a28b",
"zX c #e9b79a",
"xX c #f0b69b",
"cX c #e1b4af",
"vX c #e1b6b2",
"bX c #d4c896",
"nX c #ded19f",
"mX c #d6d296",
"MX c #cbc0bd",
"NX c #d3c6bf",
"BX c #d6d3a9",
"VX c #e2d9a7",
"CX c #e2ddb6",
"ZX c #f5d7b3",
"AX c #ebe2ae",
"SX c #fce0ba",
"DX c #d6cac4",
"FX c #ded4cd",
"GX c #e6d1cd",
"HX c #e7d6d3",
"JX c #f9eec7",
"KX c #fcf4c7",
"LX c #f0e1e3",
"PX c None",
/* pixels */
"PXPXPXPXPXPXPXPXPXPXPXPXPXPXPXPXPXPXPXPXPXPXPXPXPXPXPXPXPXPXPXPXPXPXPXPXPXPXPXPXPXPXPXPXPXPXPXPX",
"PXPXPXPXPXPXPXPXPXPXPXPXPXPXPXPXPXPXPXPXPXPXPXPXPXPXPXPXPXPXPXPXPXPXPXPXPXPXPXPXPXPXPXPXPXPXPXPX",
"PXPXPXPXPXPXPXPXPXPXPXPXPXPXPXPXPXPXPXPXPXPXPXPXPXPXPXPXPXPXPXPXPXPXPXPXPXPXPXPXPXPXPXPXPXPXPXPX",
"PXPXPXPXPXPXPXPXPXPXPXPXPXPXPXPXPXPXPXPXPXPXPXPXPXPXPXPXPXPXPXPXPXPXPXPXPXPXPXPXPXPXPXPXPXPXPXPX",
"PXPXPXPXPXPXPXPXPXPXPXPXPXPXPXPXPXPXPXPXPXPXPXPXPXPXPXPXPXPXPXPXPXPXPXPXPXPXPXPXPXPXPXPXPXPXPXPX",
"PXPXPXPXPXPXPXPXPXPXPXPXPXPXPXPXPXPXPXPXPXPXPXPXPXPXPXPXPXPXPXPXPXPXPXPXPXPXPXPXPXPXPXPXPXPXPXPX",
"PXPXPXPXPXPXPXPXPXPXPXPXPXPXPXPXPXPXPX{ B.b.C.M.0.7.PXPXPXPXPXPXPXPXPXPXPXPXPXPXPXPXPXPXPXPXPXPX",
"PXPXPXPXPXPXPXPXPXPXPXPXPXPXPX5 v q.P.(.).*X*X*X).!.P.V.v.k.E u PXPXPXPXPXPXPXPXPXPXPXPXPXPXPXPX",
"PXPXPXPXPXPXPXPXPXPXPXPXPXa =.V.I._.7X8X8X8X7X8X:X:X7X`.R.J.l.y.P PXPXPXPXPXPXPXPXPXPXPXPXPXPXPX",
"PXPXPXPXPXPXPXPXPXPXPXPXPXd.V./.7X!.N.5XzX0X].].].].;X:X=X]./.J.z.1.<.PXPXPXPXPXPXPXPXPXPXPXPXPX",
"PXPXPXPXPXPXPXPXPXPXPXo.d.G./.8X-X` O.@XAXSX9X=X;X:X2X2X1X:X=X`.P.k.l.i.A PXPXPXPXPXPXPXPXPXPXPX",
"PXPXPXPXPXPXPXPXPXPXX.D.I./.=X:X~.s ' +XVXJXlX=X,X,X2X0X$X&XaX4X'.L.G.I.0.L PXPXPXPXPXPXPXPXPXPX",
"PXPXPXPXPXPXPXPXPXPXD.^./.1X:X;X9X_ 6 +.#XqX$X).'.;X8Xn./  XmXKXzX`.L.l.C.0.PXPXPXPXPXPXPXPXPXPX",
"PXPXPXPXPXPXPXPXPXM.wX^.(.=X].;X9XQ.[ ` X.S.(.'.).'.9X6.6 t.bXJXZX'.E.j.d.w.0.T PXPXPXPXPXPXPXPX",
"PXPXPXPXPXPXPXPX{ D.eX!.`.=X=X:X:X8X'.!.).;X=X'.'.;X8Xf.< | @XBXdX).].H.p.M.w.=.; PXPXPXPXPXPXPX",
"PXPXPXPXPXPXPXPX7.sXyXY.'.=X1X1X{.'.'.;X=X'.=X'.;X;X8X).[ / ) e.A.'.1X(.i.q.0.9.t PXPXPXPXPXPXPX",
"PXPXPXPXPXPXPXu f.gXrXY.*X1X9X:X{.;X,X{.{.'.'.'.;X;X;X'.}.!.A.[.8X=X=X*Xs.,.:.%.k PXPXPXPXPXPXPX",
"PXPXPXPXPXPXPXP D.fX-XR.'.1X~.6XaX2X:X{.,X:X;X;X;X:X:X'.}.8X8X8X;X'.=X(.B.<.:.] n PXPXPXPXPXPXPX",
"PXPXPXPXPXPXPXc.sXjX<XY.`.q.) OXVXKXtX{.{.,X,X;X;X2X2X;X{.8X8X8X'.`.(.R.5.*.I v u PXPXPXPXPXPXPX",
"PXPXPXPXPXPX#.C.fXNX3XT.!._ ! XXbXJXxX'.{.{.{.{.,X:X^.4XtX8X8X8X'.].).U.2.@.h d : PXPXPXPXPXPXPX",
"PXPXPXPXPXPXI Z.fXDXsXT.`.[ 7 r.pXBXyX;X,X,X'.{.8Xm.X.+XnXZX8X|.7X=X).K.*.L y 7 - PXPXPXPXPXPXPX",
"PXPXPXPXPXPXM Q.fXNXhX).E.~.` / ' r.!.:X<X,X{.,X-X` ! +XnXKXxX|.7X(.K.z.&.m v 8 < PXPXPXPXPXPXPX",
"PXPXPXPXPXPX-.Q.iXjXjXcXY._.7XC.A.:X9X1X<X:X,X8X<X[ 6  XpXCXaX7X9XU.l.5.@.j ( 9 7 PXPXPXPXPXPXPX",
"PXPXPXPXPXPX8.A.eXFXDXHXuXT._.].7X8X9X9X1X2X<X8X8Xn.6 ) O..X~.9X=XJ.j.3.R s ( 8 3 PXPXPXPXPXPXPX",
"PXPXPXPXPXPXp.C.%XkXjXGXLXvX<X(.`.`.=X8X1X:X1X2X2X0X8Xs.d.).7X`.J.u.u.$.a 0 d 9 2 PXPXPXPXPXPXPX",
"PXPXPXPXPXPXp.i.0.n.%XoXeXhXvXfXyX-XY./.'.'.:X1X1X1X8X7X8X7X/.J.z.p.a.E 7 ^ w 0 2 PXPXPXPXPXPXPX",
"PXPXPXPXPXPXu.<.:.u.u.1.p.c.S.yXuXuXW.G.J.P./.`.`.`.`.R.K.F.l.z.k.x.a.F 0 ^ w 0 % PXPXPXPXPXPXPX",
"PXPXPXPXPXPX<.y.y.8.7.9.-.-.-.<.,.i.p.p.k.k.k.k.G.G.l.k.z.j.F.F.v.c.9.s w ^  .8 PXPXPXPXPXPXPXPX",
"PXPXPXPXPXPX#.,.8.%.W G V U Q R R U ;.:.i.p.y.,.2.g.g.u.5.j.l.x.x.x.} 0 ~  . .1 PXPXPXPXPXPXPXPX",
"PXPXPXPXPXPXPX#.=.W G U K J Q Q U C J U U $.-.9.>.1.4.h.5.y.a.a.x.u.` d ~  . .PXPXPXPXPXPXPXPXPX",
"PXPXPXPXPXPXPX#.T U Y Y K C V V J K K K U R U J R -.,.,.1.1.u.p.h.9.( w w  .q PXPXPXPXPXPXPXPXPX",
"PXPXPXPXPXPXPXA D T U Y Y K J m B K C J U S S U U S U 9.y.>.g.3.u.} ~ w 9 e PXPXPXPXPXPXPXPXPXPX",
"PXPXPXPXPXPXPXPXA S U V J C J V m C C l B V M M G G m G -.7.>.u.u.] ~ 8 9 e PXPXPXPXPXPXPXPXPXPX",
"PXPXPXPXPXPXPXPXPXI T S m m V M G C C B j m V V V V B B B 6.=.1.u.H 9 1 ..1 PXPXPXPXPXPXPXPXPXPX",
"PXPXPXPXPXPXPXPXPXPXI k m m V V G V V V V B l B B C C J B U =.<.>.v 3 9 e PXPXPXPXPXPXPXPXPXPXPX",
"PXPXPXPXPXPXPXPXPXPXPXN m S U M G G M m V B j f j f l Y C V { ;.$.c 7 4 PXPXPXPXPXPXPXPXPXPXPXPX",
"PXPXPXPXPXPXPXPXPXPXPXPXPXN L M m S G G B l f a a j B U B l T { $.n 7 PXPXPXPXPXPXPXPXPXPXPXPXPX",
"PXPXPXPXPXPXPXPXPXPXPXPXPXPXh M m Z D Z l F F x g g B F g l ] ] I u ; PXPXPXPXPXPXPXPXPXPXPXPXPX",
"PXPXPXPXPXPXPXPXPXPXPXPXPXPXPXPXPXk h h N m m l g g F F Z H ;.A = PXPXPXPXPXPXPXPXPXPXPXPXPXPXPX",
"PXPXPXPXPXPXPXPXPXPXPXPXPXPXPXPXPXPXPX> > : r t i h k n z k p $ PXPXPXPXPXPXPXPXPXPXPXPXPXPXPXPX",
"PXPXPXPXPXPXPXPXPXPXPXPXPXPXPXPXPXPXPXPXPXPX                  PXPXPXPXPXPXPXPXPXPXPXPXPXPXPXPXPX",
"PXPXPXPXPXPXPXPXPXPXPXPXPXPXPXPXPXPXPXPXPXPXPXPXPXPXPXPXPXPXPXPXPXPXPXPXPXPXPXPXPXPXPXPXPXPXPXPX",
"PXPXPXPXPXPXPXPXPXPXPXPXPXPXPXPXPXPXPXPXPXPXPXPXPXPXPXPXPXPXPXPXPXPXPXPXPXPXPXPXPXPXPXPXPXPXPXPX",
"PXPXPXPXPXPXPXPXPXPXPXPXPXPXPXPXPXPXPXPXPXPXPXPXPXPXPXPXPXPXPXPXPXPXPXPXPXPXPXPXPXPXPXPXPXPXPXPX",
"PXPXPXPXPXPXPXPXPXPXPXPXPXPXPXPXPXPXPXPXPXPXPXPXPXPXPXPXPXPXPXPXPXPXPXPXPXPXPXPXPXPXPXPXPXPXPXPX",
"PXPXPXPXPXPXPXPXPXPXPXPXPXPXPXPXPXPXPXPXPXPXPXPXPXPXPXPXPXPXPXPXPXPXPXPXPXPXPXPXPXPXPXPXPXPXPXPX",
"PXPXPXPXPXPXPXPXPXPXPXPXPXPXPXPXPXPXPXPXPXPXPXPXPXPXPXPXPXPXPXPXPXPXPXPXPXPXPXPXPXPXPXPXPXPXPXPX",
"PXPXPXPXPXPXPXPXPXPXPXPXPXPXPXPXPXPXPXPXPXPXPXPXPXPXPXPXPXPXPXPXPXPXPXPXPXPXPXPXPXPXPXPXPXPXPXPX"
};
