/* XPM */
static char *magick[] = {
/* columns rows colors chars-per-pixel */
"48 48 253 2",
"   c Gray0",
".  c #060402",
"X  c #070c0b",
"o  c #0e0706",
"O  c #0b0504",
"+  c #0c0907",
"@  c #0c0e0d",
"#  c #0b0708",
"$  c #0e1110",
"%  c #140a07",
"&  c #1b0d0b",
"*  c #120a08",
"=  c #191714",
"-  c #1f2222",
";  c #240f0c",
":  c #23100c",
">  c #2c140f",
",  c #281815",
"<  c #3e1e1a",
"1  c #351a15",
"2  c #2f221d",
"3  c #2a2b18",
"4  c #312f1b",
"5  c #3c261f",
"6  c #2a2d2c",
"7  c #252926",
"8  c #2c332c",
"9  c #2e3331",
"0  c #382a24",
"q  c #3a3428",
"w  c #343732",
"e  c #343934",
"r  c #3d3c35",
"t  c #3f3f3a",
"y  c #3d413b",
"u  c #3e4240",
"i  c #431d17",
"p  c #441e1a",
"a  c #4a1e1c",
"s  c #49231c",
"d  c #53251c",
"f  c #56281c",
"g  c #4a2628",
"h  c #49332d",
"j  c #443b35",
"k  c #56272c",
"l  c #552d25",
"z  c #562b2d",
"x  c #5b2621",
"c  c #58262b",
"v  c #5c2b24",
"b  c #5c2c2c",
"n  c #5a2d32",
"m  c #5b372e",
"M  c #573a33",
"N  c #622e1f",
"B  c #612e25",
"V  c #632c2c",
"C  c #6a2e26",
"Z  c #692e2c",
"A  c #63262f",
"S  c #642b32",
"D  c #6a2e31",
"F  c #6d2d34",
"G  c #63332c",
"H  c #6c3527",
"J  c #6a322e",
"K  c #613227",
"L  c #633231",
"P  c #6d3232",
"I  c #673c30",
"U  c #712e35",
"Y  c #732d38",
"T  c #75352b",
"R  c #76392b",
"E  c #7e3c2e",
"W  c #763429",
"Q  c #743334",
"!  c #763238",
"~  c #733b31",
"^  c #7b3635",
"/  c #7c3a33",
"(  c #7d3c3a",
")  c #793439",
"_  c #4a443b",
"`  c #45433b",
"'  c #57462e",
"]  c #564439",
"[  c #5c583a",
"{  c #664239",
"}  c #65583a",
"|  c #774337",
" . c #794336",
".. c #7e4e3f",
"X. c #77443c",
"o. c #434544",
"O. c #4a544d",
"+. c #7c5646",
"@. c #735c54",
"#. c #6e6340",
"$. c #84362f",
"%. c #843b2d",
"&. c #853c34",
"*. c #863f3d",
"=. c #8c3933",
"-. c #933e33",
";. c #86443b",
":. c #8c423b",
">. c #874537",
",. c #95443b",
"<. c #9c463c",
"1. c #9b493d",
"2. c #984538",
"3. c #a4473c",
"4. c #a64b3d",
"5. c #aa4a3d",
"6. c #ac473b",
"7. c #b04d3e",
"8. c #834a43",
"9. c #944c43",
"0. c #984740",
"q. c #9d4e42",
"w. c #924740",
"e. c #9b534a",
"r. c #9a5548",
"t. c #9c5951",
"y. c #866656",
"u. c #80724a",
"i. c #807e5f",
"p. c #937f53",
"a. c #a44c42",
"s. c #aa4c42",
"d. c #a55246",
"f. c #ac5245",
"g. c #ab544c",
"h. c #ac5f48",
"j. c #a95d52",
"k. c #b34e42",
"l. c #b84e43",
"z. c #b45244",
"x. c #b95549",
"c. c #bb5a4d",
"v. c #b65448",
"b. c #b65651",
"n. c #b45c53",
"m. c #bd5c52",
"M. c #ab614b",
"N. c #ac675c",
"B. c #a66154",
"V. c #b0614b",
"C. c #bc6254",
"Z. c #bc655a",
"A. c #b66657",
"S. c #a87f6d",
"D. c #bb6d61",
"F. c #b8766a",
"G. c #b77971",
"H. c #c1584b",
"J. c #c35d51",
"K. c #c2604c",
"L. c #c56354",
"P. c #c56a55",
"I. c #cb6354",
"U. c #cb6b5a",
"Y. c #c16759",
"T. c #cc755e",
"R. c #d36753",
"E. c #d26e5b",
"W. c #d26957",
"Q. c #d5755e",
"!. c #d8715d",
"~. c #c66d63",
"^. c #c57366",
"/. c #ca7667",
"(. c #c47e74",
"). c #d47462",
"_. c #d57a64",
"`. c #d57c6a",
"'. c #da7c66",
"]. c #da7e6d",
"[. c #dc7f6b",
"{. c #dd7e6e",
"}. c #da7c6a",
"|. c #d67e71",
" X c #dc7e70",
".X c #e17e6c",
"XX c #8f8155",
"oX c #948955",
"OX c #be8078",
"+X c #a5976b",
"@X c #b9ac7e",
"#X c #ca826c",
"$X c #c68477",
"%X c #c69670",
"&X c #d6826d",
"*X c #dd826f",
"=X c #db826e",
"-X c #d68273",
";X c #dd8172",
":X c #dd8375",
">X c #dd8572",
",X c #de8576",
"<X c #da8371",
"1X c #db8779",
"2X c #de8976",
"3X c #dc8a74",
"4X c #dd8b79",
"5X c #d48a7c",
"6X c #da957c",
"7X c #c0b37c",
"8X c #e1836e",
"9X c #e18372",
"0X c #e28574",
"qX c #e28a75",
"wX c #e28c7b",
"eX c #e58b79",
"rX c #c99086",
"tX c #cb9c94",
"yX c #d68c81",
"uX c #d39489",
"iX c #da9c92",
"pX c #cfa49f",
"aX c #dcab8a",
"sX c #d4a59c",
"dX c #d1b195",
"fX c #c3b883",
"gX c #d0aaa3",
"hX c #dbaaa2",
"jX c #d7b0a7",
"kX c #dbb5ae",
"lX c #d7bbb6",
"zX c #c9aca9",
"xX c #e6a68f",
"cX c #e9b597",
"vX c #e1b4af",
"bX c #e1b6b2",
"nX c #d0c390",
"mX c #d6d296",
"MX c #cbc0bd",
"NX c #d3c6bf",
"BX c #d5d1a8",
"VX c #e0c8ab",
"CX c #e0d7af",
"ZX c #f4dab4",
"AX c #f8e1be",
"SX c #d6cac4",
"DX c #ded4cd",
"FX c #e6d1cd",
"GX c #e7d6d3",
"HX c #f6ecc3",
"JX c #f9f3c2",
"KX c #f0e1e3",
"LX c None",
/* pixels */
"LXLXLXLXLXLXLXLXLXLXLXLXLXLXLXLXLXLXLXLXLXLXLXLXLXLXLXLXLXLXLXLXLXLXLXLXLXLXLXLXLXLXLXLXLXLXLXLX",
"LXLXLXLXLXLXLXLXLXLXLXLXLXLXLXLXLXLXLXLXLXLXLXLXLXLXLXLXLXLXLXLXLXLXLXLXLXLXLXLXLXLXLXLXLXLXLXLX",
"LXLXLXLXLXLXLXLXLXLXLXLXLXLXLXLXLXLXLXLXLXLXLXLXLXLXLXLXLXLXLXLXLXLXLXLXLXLXLXLXLXLXLXLXLXLXLXLX",
"LXLXLXLXLXLXLXLXLXLXLXLXLXLXLXLXLXLXLXLXLXLXLXLXLXLXLXLXLXLXLXLXLXLXLXLXLXLXLXLXLXLXLXLXLXLXLXLX",
"LXLXLXLXLXLXLXLXLXLXLXLXLXLXLXLXLXLXLXLXLXLXLXLXLXLXLXLXLXLXLXLXLXLXLXLXLXLXLXLXLXLXLXLXLXLXLXLX",
"LXLXLXLXLXLXLXLXLXLXLXLXLXLXLXLXLXLXLXLXLXLXLXLXLXLXLXLXLXLXLXLXLXLXLXLXLXLXLXLXLXLXLXLXLXLXLXLX",
"LXLXLXLXLXLXLXLXLXLXLXLXLXLXLXLXLXLXLX .V.M.A.B.r.9.LXLXLXLXLXLXLXLXLXLXLXLXLXLXLXLXLXLXLXLXLXLX",
"LXLXLXLXLXLXLXLXLXLXLXLXLXLXLX0 M r.U._.`.&X&X&X`./.U.C.m.x./ s LXLXLXLXLXLXLXLXLXLXLXLXLXLXLXLX",
"LXLXLXLXLXLXLXLXLXLXLXLXLXg ;.C.Y.Q.8XqXqX9X9X9X>X9X8X'.Q.L.c.a.E LXLXLXLXLXLXLXLXLXLXLXLXLXLXLX",
"LXLXLXLXLXLXLXLXLXLXLXLXLXj.C.).{.9X>X*X;X;X{.}.}.[.;X>X*X[.).L.v.3.2.LXLXLXLXLXLXLXLXLXLXLXLXLX",
"LXLXLXLXLXLXLXLXLXLXLX@.j.J.).9X>X>X;X;X>X*X].=X;X,X4X4X2X;X=X'.U.x.c.d.H LXLXLXLXLXLXLXLXLXLXLX",
"LXLXLXLXLXLXLXLXLXLX+.G.Y.).*X<X>X,X>X,X;X].=X<X>X>X4XeX#X%XaX6X].I.J.Y.e.R LXLXLXLXLXLXLXLXLXLX",
"LXLXLXLXLXLXLXLXLXLXG.(.).3X>X*X;X>X<X<X].].].].].<X0XN.' oXmXJXcX'.I.c.Z.e.LXLXLXLXLXLXLXLXLXLX",
"LXLXLXLXLXLXLXLXLXB.rX(._.*X[.;X9X>X].].].].].].`.].0X8.q XXnXHXZX].!.z.j.t.r.~ LXLXLXLXLXLXLXLX",
"LXLXLXLXLXLXLXLX .G.tX/.'.=X*X,X:X;X].].{.*X].].].<X0Xj.4 #.@XBXdX`.].K.f.B.t.;., LXLXLXLXLXLXLX",
"LXLXLXLXLXLXLXLX9.sXuXE.].*X2X2X X].].].{.].].].<X<X9X`...' } y.D.].3X_.d.e.e.0.p LXLXLXLXLXLXLX",
"LXLXLXLXLXLXLXs j.jXyXE.&X>XeX<X#X6X4X].{.].].].;X;X;X{..X~.D.<X,X=X=X&Xh.2.,.*.v LXLXLXLXLXLXLX",
"LXLXLXLXLXLXLX/ G.gX-XE.`.>XqX+.XXfXZXxX<X>X;X X;X,X>X].{.9X0X0X;X].=X_.V.2.,.( v LXLXLXLXLXLXLX",
"LXLXLXLXLXLXLXn.sXlX1XE.'.9XD.4 u.7XHXAXwX<X;X;X;X2X2X>X X9X0X0X X}._.Q.z.-.W M s LXLXLXLXLXLXLX",
"LXLXLXLXLXLX%.Z.gXNX5XR._.qX`.3 #.+XCXVX1X X{.;X;X,X4X,X,X0X0X9X{.}.`.T.4.$.x j < LXLXLXLXLXLXLX",
"LXLXLXLXLXLXW D.gXSXsXR._.>XeX' q [ i.S.|.;X]. X:X1X4X,X,XwX9X.X8X=X`.P.2.T a q > LXLXLXLXLXLXLX",
"LXLXLXLXLXLXC ^.gXNXkX`.E.`.8XeX/.t.~.,X,X:X X;X:X1X4X:X;X0X0X.X*X_.P.v.=.V m w 5 LXLXLXLXLXLXLX",
"LXLXLXLXLXLX:.^.pXlXlXvXW.Q.'.*XqXwXwX2X,X,X:X,X,X;X;X,X:X9X0X9XqXT.c.k.$.c ] e q LXLXLXLXLXLXLX",
"LXLXLXLXLXLXq.D.tXDXSXGXiXW.Q.'.=X>XqXqX2X4X,X:X;X X*X;X,X8X9XqX=XL.z.6.T h _ w 8 LXLXLXLXLXLXLX",
"LXLXLXLXLXLXf.Z.$XzXlXFXKXbX1X'.'.'.=X9X>X>X2X4X4X>X*X'.*X*X*X'.L.s.s.&.g r j e 7 LXLXLXLXLXLXLX",
"LXLXLXLXLXLXf.d.r.N.$XOXtXkXlXhXuX-XE.).].].>X3X2X>X>X[.8X8XQ.L.v.f.g./ q ` y r 7 LXLXLXLXLXLXLX",
"LXLXLXLXLXLXs.2.,.5.s.a.f.n.F.uXiXiX~.J.L.U.).}.}.}.}.Q.P.H.x.v.x.b.g.L r ` y r = LXLXLXLXLXLXLX",
"LXLXLXLXLXLX2.a.a.q.9.w.:.:.:.,.1.d.f.f.x.x.x.x.J.J.c.z.x.z.H.H.m.n.9.h t ` o.w LXLXLXLXLXLXLXLX",
"LXLXLXLXLXLX%.1.q.*.( P F Q ^ ^ ^ Q >.,.d.f.a.1.4.k.k.s.7.z.c.b.b.b.X.r _ o.o.6 LXLXLXLXLXLXLXLX",
"LXLXLXLXLXLXLX%.;.( P Q ! U ! ) Q F U Q Q &.:.w.<.3.6.l.5.a.g.g.v.s.{ j _ o.o.LXLXLXLXLXLXLXLXLX",
"LXLXLXLXLXLXLX%.~ Q ! ! Y F D D U Y Y Y Q ^ Q U ^ :.1.1.3.3.s.f.v.9.] y y o.t LXLXLXLXLXLXLXLXLX",
"LXLXLXLXLXLXLXH K ~ Q ! ! Y U A S Y F U Q J J Q Q J Q 0.a.<.k.5.k.X._ y e u LXLXLXLXLXLXLXLXLXLX",
"LXLXLXLXLXLXLXLXH J Q D U F U D A F F b A D J Z P P V P 8.9.<.s.s.X._ w e u LXLXLXLXLXLXLXLXLXLX",
"LXLXLXLXLXLXLXLXLXR ~ J V V D D P F F S c A D D D D S A A 8.;.3.s.I e 6 O.6 LXLXLXLXLXLXLXLXLXLX",
"LXLXLXLXLXLXLXLXLXLXT v V V Z D P D D D P b S S S F F U S Q ;.,.<.M 8 e u LXLXLXLXLXLXLXLXLXLXLX",
"LXLXLXLXLXLXLXLXLXLXLXC V J Q Z P P Z V D S k k c k b ! U S / >.&.m q 9 LXLXLXLXLXLXLXLXLXLXLXLX",
"LXLXLXLXLXLXLXLXLXLXLXLXLXC T Z V J P P S b k g g c S Q S b ~  .&.B q LXLXLXLXLXLXLXLXLXLXLXLXLX",
"LXLXLXLXLXLXLXLXLXLXLXLXLXLXx Z V G K G b L L n z z S L z b | | T s , LXLXLXLXLXLXLXLXLXLXLXLXLX",
"LXLXLXLXLXLXLXLXLXLXLXLXLXLXLXLXLXv x v B V V b z z L L G I >.H : LXLXLXLXLXLXLXLXLXLXLXLXLXLXLX",
"LXLXLXLXLXLXLXLXLXLXLXLXLXLXLXLXLXLXLX1 1 < i p d x v K l v f % LXLXLXLXLXLXLXLXLXLXLXLXLXLXLXLX",
"LXLXLXLXLXLXLXLXLXLXLXLXLXLXLXLXLXLXLXLXLXLX                  LXLXLXLXLXLXLXLXLXLXLXLXLXLXLXLXLX",
"LXLXLXLXLXLXLXLXLXLXLXLXLXLXLXLXLXLXLXLXLXLXLXLXLXLXLXLXLXLXLXLXLXLXLXLXLXLXLXLXLXLXLXLXLXLXLXLX",
"LXLXLXLXLXLXLXLXLXLXLXLXLXLXLXLXLXLXLXLXLXLXLXLXLXLXLXLXLXLXLXLXLXLXLXLXLXLXLXLXLXLXLXLXLXLXLXLX",
"LXLXLXLXLXLXLXLXLXLXLXLXLXLXLXLXLXLXLXLXLXLXLXLXLXLXLXLXLXLXLXLXLXLXLXLXLXLXLXLXLXLXLXLXLXLXLXLX",
"LXLXLXLXLXLXLXLXLXLXLXLXLXLXLXLXLXLXLXLXLXLXLXLXLXLXLXLXLXLXLXLXLXLXLXLXLXLXLXLXLXLXLXLXLXLXLXLX",
"LXLXLXLXLXLXLXLXLXLXLXLXLXLXLXLXLXLXLXLXLXLXLXLXLXLXLXLXLXLXLXLXLXLXLXLXLXLXLXLXLXLXLXLXLXLXLXLX",
"LXLXLXLXLXLXLXLXLXLXLXLXLXLXLXLXLXLXLXLXLXLXLXLXLXLXLXLXLXLXLXLXLXLXLXLXLXLXLXLXLXLXLXLXLXLXLXLX",
"LXLXLXLXLXLXLXLXLXLXLXLXLXLXLXLXLXLXLXLXLXLXLXLXLXLXLXLXLXLXLXLXLXLXLXLXLXLXLXLXLXLXLXLXLXLXLXLX"
};
