/* XPM */
static char *magick[] = {
/* columns rows colors chars-per-pixel */
"48 48 255 2",
"   c Gray0",
".  c #060402",
"X  c #0c0605",
"o  c #0c0907",
"O  c #0c0e0d",
"+  c #080a0a",
"@  c #0e1110",
"#  c #1b0d0b",
"$  c #130a07",
"%  c #191714",
"&  c #1f2222",
"*  c #240f0c",
"=  c #23100c",
"-  c #2c140f",
";  c #281815",
":  c #3e1e1a",
">  c #351a15",
",  c #2f221d",
"<  c #252714",
"1  c #362a1d",
"2  c #32301c",
"3  c #2a2d2c",
"4  c #252926",
"5  c #2c332c",
"6  c #2e3331",
"7  c #382a24",
"8  c #3a3228",
"9  c #343732",
"0  c #343934",
"q  c #3d3c35",
"w  c #3f3f3a",
"e  c #3d413b",
"r  c #3e4240",
"t  c #431d17",
"y  c #441e1a",
"u  c #4a1e1c",
"i  c #49231c",
"p  c #53251c",
"a  c #56281c",
"s  c #4a2628",
"d  c #4b3927",
"f  c #49332d",
"g  c #443b35",
"h  c #56272c",
"j  c #562b2d",
"k  c #5b2621",
"l  c #58262b",
"z  c #5c2b24",
"x  c #5c2c2c",
"c  c #552d25",
"v  c #5a2d32",
"b  c #5b372e",
"n  c #573a33",
"m  c #622e1f",
"M  c #612e25",
"N  c #632c2c",
"B  c #6a2e26",
"V  c #692e2c",
"C  c #63262f",
"Z  c #642b32",
"A  c #6a2e31",
"S  c #6d2d34",
"D  c #63332c",
"F  c #6c3527",
"G  c #6a322e",
"H  c #613227",
"J  c #633231",
"K  c #6d3232",
"L  c #673c30",
"P  c #712e35",
"I  c #732d38",
"U  c #75352b",
"Y  c #7e3c2e",
"T  c #763529",
"R  c #743334",
"E  c #763238",
"W  c #733b31",
"Q  c #7b3635",
"!  c #7c3a33",
"~  c #7d3c3a",
"^  c #793439",
"/  c #4e482d",
"(  c #4a443b",
")  c #45433b",
"_  c #56442e",
"`  c #554635",
"'  c #5f5738",
"]  c #664239",
"[  c #655638",
"{  c #774337",
"}  c #794336",
"|  c #78473c",
" . c #6e693f",
".. c #434544",
"X. c #4a544d",
"o. c #695b41",
"O. c #7d5448",
"+. c #735c54",
"@. c #6e6340",
"#. c #7a674c",
"$. c #84362f",
"%. c #843b2d",
"&. c #853c34",
"*. c #863f3d",
"=. c #8c3933",
"-. c #933e33",
";. c #86443b",
":. c #8c423b",
">. c #874537",
",. c #95443b",
"<. c #9c463c",
"1. c #9b493d",
"2. c #984538",
"3. c #a4473c",
"4. c #a64b3d",
"5. c #aa4a3d",
"6. c #ac473b",
"7. c #b04d3e",
"8. c #834a43",
"9. c #944c43",
"0. c #9d4e42",
"q. c #954740",
"w. c #9b534a",
"e. c #985548",
"r. c #9d5852",
"t. c #866656",
"y. c #81754c",
"u. c #937f53",
"i. c #a44c42",
"p. c #aa4c42",
"a. c #a55246",
"s. c #ac5245",
"d. c #ab544c",
"f. c #ac5f48",
"g. c #a95d52",
"h. c #b34e42",
"j. c #b84e43",
"k. c #b45244",
"l. c #b95549",
"z. c #bb5a4d",
"x. c #b65448",
"c. c #b65651",
"v. c #b45c53",
"b. c #bd5c52",
"n. c #ab614b",
"m. c #ac675c",
"M. c #a66154",
"N. c #b0614b",
"B. c #b66a5e",
"V. c #bc655a",
"C. c #ba6455",
"Z. c #a97562",
"A. c #bb6d61",
"S. c #b8766a",
"D. c #b77971",
"F. c #c1584b",
"G. c #c35d51",
"H. c #c2604c",
"J. c #c56354",
"K. c #c56a55",
"L. c #cb6354",
"P. c #cb6b5a",
"I. c #c16759",
"U. c #cc755e",
"Y. c #d36e5b",
"T. c #d26854",
"R. c #d5765e",
"E. c #d8735e",
"W. c #c86c62",
"Q. c #cd7669",
"!. c #c77466",
"~. c #c47e74",
"^. c #d47462",
"/. c #d57a64",
"(. c #d47b6b",
"). c #db7c66",
"_. c #da7e6e",
"`. c #dc7e6a",
"'. c #db7c6b",
"]. c #dc7f71",
"[. c #d77f71",
"{. c #e17e6c",
"}. c #948955",
"|. c #978860",
" X c #a09268",
".X c #be8169",
"XX c #be8078",
"oX c #b9ab78",
"OX c #bfb87f",
"+X c #c6846c",
"@X c #c69670",
"#X c #d6826d",
"$X c #dd826e",
"%X c #db836e",
"&X c #d58374",
"*X c #dd8272",
"=X c #dd8572",
"-X c #de8576",
";X c #db8373",
":X c #dd8679",
">X c #dd8975",
",X c #dd8b7a",
"<X c #d48a7c",
"1X c #dc907c",
"2X c #c68477",
"3X c #e1836e",
"4X c #e18372",
"5X c #e18676",
"6X c #e38573",
"7X c #e18a75",
"8X c #e28b79",
"9X c #e08779",
"0X c #c99086",
"qX c #cb9c94",
"wX c #df8f80",
"eX c #d68c81",
"rX c #d79385",
"tX c #d1958a",
"yX c #da9c92",
"uX c #cfa49f",
"iX c #d7a884",
"pX c #d4a59c",
"aX c #d1b195",
"sX c #d0aaa3",
"dX c #dbaaa2",
"fX c #d7b0a7",
"gX c #dbb5ae",
"hX c #d4bfa1",
"jX c #d7bbb6",
"kX c #c9aca9",
"lX c #e4a48d",
"zX c #e9b597",
"xX c #e1b4af",
"cX c #e1b6b2",
"vX c #cbc296",
"bX c #d0c390",
"nX c #d6d296",
"mX c #cbc0bd",
"MX c #d6cfa7",
"NX c #d7cba8",
"BX c #d3c6bf",
"VX c #d5d1a8",
"CX c #f0c3a3",
"ZX c #f6d9b7",
"AX c #e4d6aa",
"SX c #ece7b1",
"DX c #f7e1bd",
"FX c #d6cac4",
"GX c #ded4cd",
"HX c #e6d1cd",
"JX c #e7d6d3",
"KX c #f7ecc4",
"LX c #f9f3c1",
"PX c #f0e1e3",
"IX c None",
/* pixels */
"IXIXIXIXIXIXIXIXIXIXIXIXIXIXIXIXIXIXIXIXIXIXIXIXIXIXIXIXIXIXIXIXIXIXIXIXIXIXIXIXIXIXIXIXIXIXIXIX",
"IXIXIXIXIXIXIXIXIXIXIXIXIXIXIXIXIXIXIXIXIXIXIXIXIXIXIXIXIXIXIXIXIXIXIXIXIXIXIXIXIXIXIXIXIXIXIXIX",
"IXIXIXIXIXIXIXIXIXIXIXIXIXIXIXIXIXIXIXIXIXIXIXIXIXIXIXIXIXIXIXIXIXIXIXIXIXIXIXIXIXIXIXIXIXIXIXIX",
"IXIXIXIXIXIXIXIXIXIXIXIXIXIXIXIXIXIXIXIXIXIXIXIXIXIXIXIXIXIXIXIXIXIXIXIXIXIXIXIXIXIXIXIXIXIXIXIX",
"IXIXIXIXIXIXIXIXIXIXIXIXIXIXIXIXIXIXIXIXIXIXIXIXIXIXIXIXIXIXIXIXIXIXIXIXIXIXIXIXIXIXIXIXIXIXIXIX",
"IXIXIXIXIXIXIXIXIXIXIXIXIXIXIXIXIXIXIXIXIXIXIXIXIXIXIXIXIXIXIXIXIXIXIXIXIXIXIXIXIXIXIXIXIXIXIXIX",
"IXIXIXIXIXIXIXIXIXIXIXIXIXIXIXIXIXIXIX} N.n.C.M.e.9.IXIXIXIXIXIXIXIXIXIXIXIXIXIXIXIXIXIXIXIXIXIX",
"IXIXIXIXIXIXIXIXIXIXIXIXIXIXIX7 n e.P./.(.#X#X#X(.Q.P.C.b.l.! i IXIXIXIXIXIXIXIXIXIXIXIXIXIXIXIX",
"IXIXIXIXIXIXIXIXIXIXIXIXIXs ;.C.I.R.3X7X7X5X4X4X=X=X3X).Y.J.z.i.Y IXIXIXIXIXIXIXIXIXIXIXIXIXIXIX",
"IXIXIXIXIXIXIXIXIXIXIXIXIXg.C.^._.3X-X$X*X*X_.).).`.$X7X=X`.^.J.x.3.2.IXIXIXIXIXIXIXIXIXIXIXIXIX",
"IXIXIXIXIXIXIXIXIXIXIX+.g.G.^.=X=X=X*X*X*X$X_.#X*X-X,X,X>X=X%X).P.l.z.a.F IXIXIXIXIXIXIXIXIXIXIX",
"IXIXIXIXIXIXIXIXIXIXO.D.I.^.$X*X=X-X=X-X*X_.#X*X;X;X,X8X+X@XiX1X`.L.G.I.w.U IXIXIXIXIXIXIXIXIXIX",
"IXIXIXIXIXIXIXIXIXIXD.~.^.=X=X*X*X=X*X*X_._._._._.*X5Xm._ }.nXLXzX).L.z.B.w.IXIXIXIXIXIXIXIXIXIX",
"IXIXIXIXIXIXIXIXIXM.0X~./.%X`.*X4X=X_._._.]._.'./._.5X8.d u.bXKXZX_.E.k.v.r.e.W IXIXIXIXIXIXIXIX",
"IXIXIXIXIXIXIXIX} D.qXQ.).%X$X-X-X*X_._.5X(..XiXwX'.5Xg.2 @.oXVXaX/.`.H.p.M.r.;.; IXIXIXIXIXIXIX",
"IXIXIXIXIXIXIXIX9.pXtXY.`.%X>X>X].'._.*X(._ y.OXLXCX5X(.| _ [ t.A._.=X/.a.e.w.q.y IXIXIXIXIXIXIX",
"IXIXIXIXIXIXIXi g.fXeXY.#X=X8X7X_.*X*X*XA.2 #.oXKXDX8X$X{.W.A.*X-X%X%X#Xf.2.,.*.z IXIXIXIXIXIXIX",
"IXIXIXIXIXIXIXY D.sX&XY.(.7X>X.XiXlX*X_.&X< '  XMXhX&X_.].6X6X6X*X_.%X/.N.<.,.{ M IXIXIXIXIXIXIX",
"IXIXIXIXIXIXIXv.pXjX:XY.).%X|  .oXSXZX>X6Xe._ ` #.Z.=X-X*X4X6X5X].'./.R.7.-.T n i IXIXIXIXIXIXIX",
"IXIXIXIXIXIX%.V.sXBX<XT.`.!.d [ oXAXKXlX].4XQ.B.Q.5X8X-X;X5X4X4X_.).(.U.4.$.k g : IXIXIXIXIXIXIX",
"IXIXIXIXIXIXT A.sXFXpXT.).#Xd / |.vXNXrX[.;X].].:X,X,X-X-X9X4X{.3X%X(.K.2.U u 8 - IXIXIXIXIXIXIX",
"IXIXIXIXIXIXB !.sXBXgX(.Y.%XB._ _ o.Z.(.:X;X].*X;X:X,X;X*X5X5X{.3X/.K.x.=.C b 9 1 IXIXIXIXIXIXIX",
"IXIXIXIXIXIX:.!.uXjXjXxXY.E.3X`.A.!.8X7X-X-X;X-X-X].*X-X;X4X6X4X8XU.z.7.$.h ` 0 8 IXIXIXIXIXIXIX",
"IXIXIXIXIXIX0.A.qXGXFXJXyXT.R.`.3X4X8X7X>X,X-X;X;X].$X*X-X3X4X8X#XJ.k.5.U f ( 9 5 IXIXIXIXIXIXIX",
"IXIXIXIXIXIXs.V.2XkXjXHXPXcX:X).).).$X4X=X=X>X,X>X-X$X).$X$X%X).J.p.p.&.s q g 0 4 IXIXIXIXIXIXIX",
"IXIXIXIXIXIXs.a.w.m.2XXXqXgXjXdXrX&XY.^.`._.=X>X>X=X=X`.%X3X^.J.x.s.d.! 8 ) e q 4 IXIXIXIXIXIXIX",
"IXIXIXIXIXIXp.2.,.p.p.3.s.v.S.tXyXyXW.G.J.P.^.'.'.'.).R.K.F.z.x.l.c.d.D q ) e q % IXIXIXIXIXIXIX",
"IXIXIXIXIXIX2.i.i.0.9.q.:.:.:.2.1.a.s.s.l.l.l.l.G.G.z.l.x.j.F.F.b.v.q.f e ) ..9 IXIXIXIXIXIXIXIX",
"IXIXIXIXIXIX%.1.0.*.~ K A R ~ Q Q R ;.,.a.s.i.1.4.h.h.p.7.k.z.c.c.c.| q ( ....3 IXIXIXIXIXIXIXIX",
"IXIXIXIXIXIXIX%.;.~ K R I P E ^ R S P R R &.:.q.<.3.6.j.5.i.d.d.c.p.] w ( ....IXIXIXIXIXIXIXIXIX",
"IXIXIXIXIXIXIX%.W Q E E I S A A P I I I R Q R P Q :.1.1.3.3.p.s.j.q.` e e ..w IXIXIXIXIXIXIXIXIX",
"IXIXIXIXIXIXIXF H K Q R E I P C Z I S P R G G Q R G R q.i.<.h.5.h.| ( e 0 r IXIXIXIXIXIXIXIXIXIX",
"IXIXIXIXIXIXIXIXF G R A P S P A C S S x C A G V K K N K 8.9.<.p.p.{ ( 9 0 r IXIXIXIXIXIXIXIXIXIX",
"IXIXIXIXIXIXIXIXIXT W K N N A V K S S Z l C A A A A Z C C 8.;.3.p.L 0 3 X.3 IXIXIXIXIXIXIXIXIXIX",
"IXIXIXIXIXIXIXIXIXIXT z N N A A K A A A K x Z Z Z S S P Z R ;.2.<.n 5 0 r IXIXIXIXIXIXIXIXIXIXIX",
"IXIXIXIXIXIXIXIXIXIXIXB N G R V K K V N A Z h h l h x E P Z ! >.&.b 8 6 IXIXIXIXIXIXIXIXIXIXIXIX",
"IXIXIXIXIXIXIXIXIXIXIXIXIXB U B N G K K Z x h s s l Z R Z x W } &.M 8 IXIXIXIXIXIXIXIXIXIXIXIXIX",
"IXIXIXIXIXIXIXIXIXIXIXIXIXIXk B N D H D x J J v j j Z J j x { { T i ; IXIXIXIXIXIXIXIXIXIXIXIXIX",
"IXIXIXIXIXIXIXIXIXIXIXIXIXIXIXIXIXz k z M N N x j j J J D L >.F = IXIXIXIXIXIXIXIXIXIXIXIXIXIXIX",
"IXIXIXIXIXIXIXIXIXIXIXIXIXIXIXIXIXIXIX> > : t y p k z H c z a $ IXIXIXIXIXIXIXIXIXIXIXIXIXIXIXIX",
"IXIXIXIXIXIXIXIXIXIXIXIXIXIXIXIXIXIXIXIXIXIX                  IXIXIXIXIXIXIXIXIXIXIXIXIXIXIXIXIX",
"IXIXIXIXIXIXIXIXIXIXIXIXIXIXIXIXIXIXIXIXIXIXIXIXIXIXIXIXIXIXIXIXIXIXIXIXIXIXIXIXIXIXIXIXIXIXIXIX",
"IXIXIXIXIXIXIXIXIXIXIXIXIXIXIXIXIXIXIXIXIXIXIXIXIXIXIXIXIXIXIXIXIXIXIXIXIXIXIXIXIXIXIXIXIXIXIXIX",
"IXIXIXIXIXIXIXIXIXIXIXIXIXIXIXIXIXIXIXIXIXIXIXIXIXIXIXIXIXIXIXIXIXIXIXIXIXIXIXIXIXIXIXIXIXIXIXIX",
"IXIXIXIXIXIXIXIXIXIXIXIXIXIXIXIXIXIXIXIXIXIXIXIXIXIXIXIXIXIXIXIXIXIXIXIXIXIXIXIXIXIXIXIXIXIXIXIX",
"IXIXIXIXIXIXIXIXIXIXIXIXIXIXIXIXIXIXIXIXIXIXIXIXIXIXIXIXIXIXIXIXIXIXIXIXIXIXIXIXIXIXIXIXIXIXIXIX",
"IXIXIXIXIXIXIXIXIXIXIXIXIXIXIXIXIXIXIXIXIXIXIXIXIXIXIXIXIXIXIXIXIXIXIXIXIXIXIXIXIXIXIXIXIXIXIXIX",
"IXIXIXIXIXIXIXIXIXIXIXIXIXIXIXIXIXIXIXIXIXIXIXIXIXIXIXIXIXIXIXIXIXIXIXIXIXIXIXIXIXIXIXIXIXIXIXIX"
};
