/* XPM */
static char *magick[] = {
/* columns rows colors chars-per-pixel */
"48 48 257 2",
"   c Gray0",
".  c #060402",
"X  c #0c0605",
"o  c #0c0e0d",
"O  c #0a0909",
"+  c #0e1110",
"@  c #180b09",
"#  c #191714",
"$  c #1f2222",
"%  c #240f0c",
"&  c #23100c",
"*  c #2c140f",
"=  c #281815",
"-  c #3e1e1a",
";  c #351a15",
":  c #2f221d",
">  c #252714",
",  c #362a1d",
"<  c #32301c",
"1  c #2a2d2c",
"2  c #252926",
"3  c #2c332c",
"4  c #2e3331",
"5  c #382a24",
"6  c #3e3a23",
"7  c #393227",
"8  c #343732",
"9  c #343934",
"0  c #3d3c35",
"q  c #3f3f3a",
"w  c #3d413b",
"e  c #3e4240",
"r  c #431d17",
"t  c #441e1a",
"y  c #4a1e1c",
"u  c #49231c",
"i  c #53251c",
"p  c #56281c",
"a  c #4a2628",
"s  c #47332a",
"d  c #443b35",
"f  c #56272c",
"g  c #562b2d",
"h  c #5b2621",
"j  c #58262b",
"k  c #5c2b24",
"l  c #5c2c2c",
"z  c #552d25",
"x  c #5a2d32",
"c  c #5b372e",
"v  c #573a33",
"b  c #622e1f",
"n  c #612e25",
"m  c #632c2c",
"M  c #692e2c",
"N  c #672b29",
"B  c #642b32",
"V  c #6a2e31",
"C  c #6d2d34",
"Z  c #63332c",
"A  c #6c3527",
"S  c #6a322e",
"D  c #613227",
"F  c #633231",
"G  c #6d3232",
"H  c #673c30",
"J  c #712e35",
"K  c #732d38",
"L  c #75352b",
"P  c #78372a",
"I  c #743334",
"U  c #763238",
"Y  c #733b31",
"T  c #7b3635",
"R  c #7c3a33",
"E  c #7d3c3a",
"W  c #793439",
"Q  c #474229",
"!  c #4a443b",
"~  c #45433b",
"^  c #57462e",
"/  c #564430",
"(  c #544639",
")  c #585234",
"_  c #654436",
"`  c #684739",
"'  c #645639",
"]  c #774337",
"[  c #794336",
"{  c #77473c",
"}  c #6e653e",
"|  c #434544",
" . c #4a544d",
".. c #7a5745",
"X. c #735c54",
"o. c #6e6846",
"O. c #7a714c",
"+. c #7a674c",
"@. c #84362f",
"#. c #843b2d",
"$. c #853c34",
"%. c #863f3d",
"&. c #8c3933",
"*. c #933e33",
"=. c #86443b",
"-. c #8c423b",
";. c #874537",
":. c #95443b",
">. c #9c463c",
",. c #9b493d",
"<. c #984538",
"1. c #a4473c",
"2. c #a64b3d",
"3. c #aa4a3d",
"4. c #ac473b",
"5. c #b04d3e",
"6. c #834a43",
"7. c #944c43",
"8. c #9d4e42",
"9. c #954740",
"0. c #985549",
"q. c #9d5852",
"w. c #866656",
"e. c #81754c",
"r. c #8c7657",
"t. c #937f53",
"y. c #a44c42",
"u. c #aa4c42",
"i. c #a55246",
"p. c #ac5245",
"a. c #ab544c",
"s. c #a95c4a",
"d. c #ac5c52",
"f. c #a25e53",
"g. c #b34e42",
"h. c #b84e43",
"j. c #b45244",
"k. c #b95549",
"l. c #bb5a4d",
"z. c #b65448",
"x. c #b65651",
"c. c #b45c53",
"v. c #bd5c52",
"b. c #ab614b",
"n. c #ac665b",
"m. c #a66154",
"M. c #a27c5c",
"N. c #b0614b",
"B. c #b96659",
"V. c #b0705f",
"C. c #af7664",
"Z. c #bb6c61",
"A. c #bc7061",
"S. c #b8786c",
"D. c #b77971",
"F. c #c1584b",
"G. c #c35d51",
"H. c #c2604c",
"J. c #c56354",
"K. c #c56a55",
"L. c #cb6354",
"P. c #cb6b5a",
"I. c #c2675a",
"U. c #cc755e",
"Y. c #d26d5c",
"T. c #d36854",
"R. c #d7745d",
"E. c #c86c62",
"W. c #c67468",
"Q. c #cb7464",
"!. c #c67667",
"~. c #c47e74",
"^. c #d37462",
"/. c #d57a64",
"(. c #d47b6b",
"). c #db7760",
"_. c #da7b66",
"`. c #da7e6e",
"'. c #db7c6b",
"]. c #d5756a",
"[. c #d67f72",
"{. c #dc7e70",
"}. c #e17e6c",
"|. c #e07a67",
" X c #958658",
".X c #8d8567",
"XX c #a89868",
"oX c #be8078",
"OX c #afa66c",
"+X c #b3a36d",
"@X c #bbad79",
"#X c #bfb87f",
"$X c #a7a279",
"%X c #c7856c",
"&X c #c98374",
"*X c #c69670",
"=X c #d6826d",
"-X c #db826e",
";X c #d58273",
":X c #de8572",
">X c #de8676",
",X c #dc8272",
"<X c #db877a",
"1X c #dd8975",
"2X c #dd8c7a",
"3X c #d48a7c",
"4X c #d9947a",
"5X c #cab07f",
"6X c #d0a47c",
"7X c #e1836e",
"8X c #e28473",
"9X c #e68779",
"0X c #e28a76",
"qX c #e28c7a",
"wX c #bbaa8c",
"eX c #c99086",
"rX c #cb9c94",
"tX c #db8e81",
"yX c #df9382",
"uX c #d39789",
"iX c #da9c92",
"pX c #cfa49f",
"aX c #c5b98d",
"sX c #dca888",
"dX c #d4a59c",
"fX c #d1b195",
"gX c #d4aaa2",
"hX c #dbb5ae",
"jX c #d6b8a4",
"kX c #d7bbb6",
"lX c #c9aca9",
"zX c #e4a28b",
"xX c #e9b79a",
"cX c #f0b69b",
"vX c #e1b4af",
"bX c #e1b6b2",
"nX c #d4c896",
"mX c #ded19f",
"MX c #d6d296",
"NX c #cbc0bd",
"BX c #d6cfa7",
"VX c #d3c6bf",
"CX c #d6d3a9",
"ZX c #e2d9a7",
"AX c #e2ddb6",
"SX c #f0c3a3",
"DX c #f5d7b3",
"FX c #ebe2ae",
"GX c #fae1bc",
"HX c #d6cac4",
"JX c #ded4cd",
"KX c #e6d1cd",
"LX c #e7d6d3",
"PX c #f7ecc4",
"IX c #fbf4c5",
"UX c #f0e1e3",
"YX c None",
/* pixels */
"YXYXYXYXYXYXYXYXYXYXYXYXYXYXYXYXYXYXYXYXYXYXYXYXYXYXYXYXYXYXYXYXYXYXYXYXYXYXYXYXYXYXYXYXYXYXYXYX",
"YXYXYXYXYXYXYXYXYXYXYXYXYXYXYXYXYXYXYXYXYXYXYXYXYXYXYXYXYXYXYXYXYXYXYXYXYXYXYXYXYXYXYXYXYXYXYXYX",
"YXYXYXYXYXYXYXYXYXYXYXYXYXYXYXYXYXYXYXYXYXYXYXYXYXYXYXYXYXYXYXYXYXYXYXYXYXYXYXYXYXYXYXYXYXYXYXYX",
"YXYXYXYXYXYXYXYXYXYXYXYXYXYXYXYXYXYXYXYXYXYXYXYXYXYXYXYXYXYXYXYXYXYXYXYXYXYXYXYXYXYXYXYXYXYXYXYX",
"YXYXYXYXYXYXYXYXYXYXYXYXYXYXYXYXYXYXYXYXYXYXYXYXYXYXYXYXYXYXYXYXYXYXYXYXYXYXYXYXYXYXYXYXYXYXYXYX",
"YXYXYXYXYXYXYXYXYXYXYXYXYXYXYXYXYXYXYXYXYXYXYXYXYXYXYXYXYXYXYXYXYXYXYXYXYXYXYXYXYXYXYXYXYXYXYXYX",
"YXYXYXYXYXYXYXYXYXYXYXYXYXYXYXYXYXYXYX[ N.b.B.b.0.7.YXYXYXYXYXYXYXYXYXYXYXYXYXYXYXYXYXYXYXYXYXYX",
"YXYXYXYXYXYXYXYXYXYXYXYXYXYXYX, v 0.P.R.=X=X=X=X(.Q.P.B.v.k.R u YXYXYXYXYXYXYXYXYXYXYXYXYXYXYXYX",
"YXYXYXYXYXYXYXYXYXYXYXYXYXa =.B.I.).7X8X8X8X7X8X8X:X7X_.Y.J.l.y.P YXYXYXYXYXYXYXYXYXYXYXYXYXYXYX",
"YXYXYXYXYXYXYXYXYXYXYXYXYXd.B.^.7XQ.M.5XxXqX'.'.'.'.,X8X:X-X^.J.z.1.<.YXYXYXYXYXYXYXYXYXYXYXYXYX",
"YXYXYXYXYXYXYXYXYXYXYXX.d.G.^.8X;X_ o.@XFXGX2X-X,X:X2X2X1X:X-X_.P.k.l.i.A YXYXYXYXYXYXYXYXYXYXYX",
"YXYXYXYXYXYXYXYXYXYX..D.I.^.-X,X!.s ' +XZXIXzX-X,X,X2XqX%X*XsX4X`.L.G.I.8.Y YXYXYXYXYXYXYXYXYXYX",
"YXYXYXYXYXYXYXYXYXYXS.~.^.1X:X,X0X_ 6 O.$XwX&X'.`.,X8Xn.^  XMXGXxX_.L.l.B.0.YXYXYXYXYXYXYXYXYXYX",
"YXYXYXYXYXYXYXYXYXm.eX~./.-X'.,X9X!.{ ` ..S.].'.].`.0X6.s  XnXPXDX`.R.j.d.q.0.Y YXYXYXYXYXYXYXYX",
"YXYXYXYXYXYXYXYX[ D.rXQ._.-X-X:X:X8X-XQ.[.(.%X6XyX'.8Xf.< } @XCXfX].'.H.u.m.q.=.= YXYXYXYXYXYXYX",
"YXYXYXYXYXYXYXYX7.dXuXY.`.-X1X1X[.`.[.:X(./ e.#XIXSX0X(.{ ^ ) w.A.`.1X/.p.0.0.9.t YXYXYXYXYXYXYX",
"YXYXYXYXYXYXYXu q.jXtXY.=X:X0X,X`.,X:X,XZ.< O.@XPXDX2X`.}.Q.A.[.8X-X-X=Xs.,.:.%.k YXYXYXYXYXYXYX",
"YXYXYXYXYXYXYXP D.pX<XY.`.1X!.6XzX2X:X,X;X> ) XXCXjX<X`.`.8X9X8X,X`.-X/.N.<.:.E k YXYXYXYXYXYXYX",
"YXYXYXYXYXYXYXc.dXkX<XY._.0.) OXZXIXyX{.9X0./ / +.C.;X,X{.8X8X8X`.'./.R.5.*.P v u YXYXYXYXYXYXYX",
"YXYXYXYXYXYX#.B.gXVX3XT.Q._ Q OXnXIXcX`.,X8XQ.Z.(.0X&X4XyX8X}.8X`.'.(.U.2.#.h d - YXYXYXYXYXYXYX",
"YXYXYXYXYXYXP Z.gXHXdXT._.{ 7 r.aXCXuX,X,X,X{.8XqXV...+XmXDX8X|.7X-X(.K.<.I y 7 * YXYXYXYXYXYXYX",
"YXYXYXYXYXYXM !.pXHXhX(.R.!.` ^ ' r.Q.:X<X,X{.,X[.` Q +XmXIXcX|.7X/.K.z.&.m c 8 , YXYXYXYXYXYXYX",
"YXYXYXYXYXYX-.W.pXkXkXvXY.).7XB.A.:X0X1X<X<X,X<X:X{ 6  XaXAXsX7X0XU.l.5.@.j ( 9 7 YXYXYXYXYXYXYX",
"YXYXYXYXYXYX8.A.rXJXHXLXiXT.).'.7X8X0X0X1X2X:X8X8Xn.6 ) o..X!.0X-XJ.j.3.L s ( 8 3 YXYXYXYXYXYXYX",
"YXYXYXYXYXYXp.B.&XlXkXKXUXbX<X/._._.-X8X1X:X1X2X2X0X8Xs.d.(.7X_.J.u.u.$.a 0 d 9 2 YXYXYXYXYXYXYX",
"YXYXYXYXYXYXp.i.0.n.&XoXrXhXbXgXuX;XY.^.`.`.:X1X1X1X8X7X8X7X^.J.z.p.a.R 7 ~ w 0 2 YXYXYXYXYXYXYX",
"YXYXYXYXYXYXu.<.:.u.u.1.a.c.S.uXiXiXE.G.J.P.^.'.'.'._.R.K.F.l.z.k.x.a.F 0 ~ w 0 # YXYXYXYXYXYXYX",
"YXYXYXYXYXYX<.y.y.8.7.9.-.-.-.<.,.i.p.p.k.k.k.k.G.G.l.j.z.j.F.F.v.c.9.s w ~ | 8 YXYXYXYXYXYXYXYX",
"YXYXYXYXYXYX#.,.8.%.E G V I W T T I ;.:.i.p.y.,.2.g.g.u.5.j.l.x.x.x.{ 0 ! | | 1 YXYXYXYXYXYXYXYX",
"YXYXYXYXYXYXYX#.=.E G I K J W W I C J I I $.-.9.>.1.4.h.5.y.a.a.x.u.` d ! | | YXYXYXYXYXYXYXYXYX",
"YXYXYXYXYXYXYX#.Y I U U K C V V J K K K I T I J T -.,.,.1.1.u.p.k.9.( w w | q YXYXYXYXYXYXYXYXYX",
"YXYXYXYXYXYXYXA D Y I U U K J m B K C J I S S I I S I 9.y.>.g.3.u.[ ! w 9 e YXYXYXYXYXYXYXYXYXYX",
"YXYXYXYXYXYXYXYXA S I V J C J V m C C l B V M M G G m G -.7.>.u.u.{ ! 8 9 e YXYXYXYXYXYXYXYXYXYX",
"YXYXYXYXYXYXYXYXYXP Y S m m V V G C C B j m V V V V B B B 6.=.1.u.H 9 1  .1 YXYXYXYXYXYXYXYXYXYX",
"YXYXYXYXYXYXYXYXYXYXL k m m M V G V V V V B l B B C C J B I =.<.>.v 3 9 e YXYXYXYXYXYXYXYXYXYXYX",
"YXYXYXYXYXYXYXYXYXYXYXA m S I M G G M m V B j f j f l U C B R ;.$.c 7 4 YXYXYXYXYXYXYXYXYXYXYXYX",
"YXYXYXYXYXYXYXYXYXYXYXYXYXA L M m S G G B l f a a j B I B l Y [ $.n 7 YXYXYXYXYXYXYXYXYXYXYXYXYX",
"YXYXYXYXYXYXYXYXYXYXYXYXYXYXh N m Z D Z l F F x g g B F g l ] ] L u = YXYXYXYXYXYXYXYXYXYXYXYXYX",
"YXYXYXYXYXYXYXYXYXYXYXYXYXYXYXYXYXk h h N m m l g g F F Z H ;.A & YXYXYXYXYXYXYXYXYXYXYXYXYXYXYX",
"YXYXYXYXYXYXYXYXYXYXYXYXYXYXYXYXYXYXYX; ; - r t i h k n z k p @ YXYXYXYXYXYXYXYXYXYXYXYXYXYXYXYX",
"YXYXYXYXYXYXYXYXYXYXYXYXYXYXYXYXYXYXYXYXYXYX                  YXYXYXYXYXYXYXYXYXYXYXYXYXYXYXYXYX",
"YXYXYXYXYXYXYXYXYXYXYXYXYXYXYXYXYXYXYXYXYXYXYXYXYXYXYXYXYXYXYXYXYXYXYXYXYXYXYXYXYXYXYXYXYXYXYXYX",
"YXYXYXYXYXYXYXYXYXYXYXYXYXYXYXYXYXYXYXYXYXYXYXYXYXYXYXYXYXYXYXYXYXYXYXYXYXYXYXYXYXYXYXYXYXYXYXYX",
"YXYXYXYXYXYXYXYXYXYXYXYXYXYXYXYXYXYXYXYXYXYXYXYXYXYXYXYXYXYXYXYXYXYXYXYXYXYXYXYXYXYXYXYXYXYXYXYX",
"YXYXYXYXYXYXYXYXYXYXYXYXYXYXYXYXYXYXYXYXYXYXYXYXYXYXYXYXYXYXYXYXYXYXYXYXYXYXYXYXYXYXYXYXYXYXYXYX",
"YXYXYXYXYXYXYXYXYXYXYXYXYXYXYXYXYXYXYXYXYXYXYXYXYXYXYXYXYXYXYXYXYXYXYXYXYXYXYXYXYXYXYXYXYXYXYXYX",
"YXYXYXYXYXYXYXYXYXYXYXYXYXYXYXYXYXYXYXYXYXYXYXYXYXYXYXYXYXYXYXYXYXYXYXYXYXYXYXYXYXYXYXYXYXYXYXYX",
"YXYXYXYXYXYXYXYXYXYXYXYXYXYXYXYXYXYXYXYXYXYXYXYXYXYXYXYXYXYXYXYXYXYXYXYXYXYXYXYXYXYXYXYXYXYXYXYX"
};
