/* XPM */
static char * tile_12_xpm[] = {
"32 32 2 1",
" 	c None",
".	c #000000",
"                                ",
"                                ",
"                                ",
"                                ",
"                                ",
"                                ",
"                                ",
"                    ..          ",
"        ..        .   ..        ",
"      ....       .     ..       ",
"        ..      .       ..      ",
"        ..      .       ..      ",
"        ..      ..      ..      ",
"        ..      ..     ...      ",
"        ..             ...      ",
"        ..             ..       ",
"        ..            ...       ",
"        ..            ..        ",
"        ..           ..         ",
"        ..          ..          ",
"        ..         ..           ",
"        ..        ..            ",
"        ..       ..      .      ",
"       ....     ..........      ",
"      ......    .........       ",
"                                ",
"                                ",
"                                ",
"                                ",
"                                ",
"                                ",
"                                "};
