/* XPM */
static char * tile_04_xpm[] = {
"32 32 2 1",
" 	c None",
".	c #000000",
"                                ",
"                                ",
"                                ",
"                                ",
"                                ",
"                                ",
"                                ",
"                                ",
"                  .             ",
"                 ..             ",
"                 ..             ",
"                ...             ",
"               . ..             ",
"                 ..             ",
"              .  ..             ",
"             .   ..             ",
"                 ..             ",
"            .    ..             ",
"           .     ..             ",
"           ..........           ",
"                ...             ",
"                 ..             ",
"                 ..             ",
"                ...             ",
"               .....            ",
"                                ",
"                                ",
"                                ",
"                                ",
"                                ",
"                                ",
"                                "};
