/* XPM */
static char * tile_07_xpm[] = {
"32 32 2 1",
" 	c None",
".	c #000000",
"                                ",
"                                ",
"                                ",
"                                ",
"                                ",
"                                ",
"                                ",
"                                ",
"            .........           ",
"           ..........           ",
"           ..                   ",
"           .       .            ",
"                  .             ",
"                  .             ",
"                 ..             ",
"                 .              ",
"                ..              ",
"                .               ",
"               ..               ",
"              ..                ",
"              ..                ",
"             ...                ",
"             ..                 ",
"            ...                 ",
"            ..                  ",
"                                ",
"                                ",
"                                ",
"                                ",
"                                ",
"                                ",
"                                "};
