/* XPM */
static char * tile_03_xpm[] = {
"32 32 2 1",
" 	c None",
".	c #000000",
"                                ",
"                                ",
"                                ",
"                                ",
"                                ",
"                                ",
"                                ",
"              ..                ",
"            .   ..              ",
"           .     ..             ",
"           .     ..             ",
"           ..     ..            ",
"                  ..            ",
"                 ..             ",
"                 ..             ",
"             ....               ",
"             .. ...             ",
"                 ..             ",
"                  ..            ",
"                  ..            ",
"          ..      ..            ",
"          .       ..            ",
"          ..     ...            ",
"           ..    ..             ",
"            .....               ",
"                                ",
"                                ",
"                                ",
"                                ",
"                                ",
"                                ",
"                                "};
