/* XPM */
static char * tile_08_xpm[] = {
"32 32 2 1",
" 	c None",
".	c #000000",
"                                ",
"                                ",
"                                ",
"                                ",
"                                ",
"                                ",
"                                ",
"               ..               ",
"             .    ..            ",
"            .      ..           ",
"           ..      ..           ",
"           ..      ...          ",
"           ..      ..           ",
"           ...     ..           ",
"            ....  ..            ",
"             ......             ",
"            ..  .....           ",
"           ..     ...           ",
"           ..      ...          ",
"           ..       ..          ",
"           ..       ..          ",
"           ..      ...          ",
"           ..      ..           ",
"            ..    ..            ",
"              .....             ",
"                                ",
"                                ",
"                                ",
"                                ",
"                                ",
"                                ",
"                                "};
